<?xml version="1.0" standalone="no"?>
<!DOCTYPE svg PUBLIC "-//W3C//DTD SVG 20010904//EN"
 "http://www.w3.org/TR/2001/REC-SVG-20010904/DTD/svg10.dtd">
<svg version="1.0" xmlns="http://www.w3.org/2000/svg"
 width="300.000000pt" height="299.000000pt" viewBox="0 0 300.000000 299.000000"
 preserveAspectRatio="xMidYMid meet">

<g transform="translate(0.000000,299.000000) scale(0.100000,-0.100000)"
fill="#000000" stroke="none">
<path d="M1729 2948 c-64 -31 -102 -60 -159 -117 -122 -123 -170 -232 -179
-411 l-6 -115 -169 -5 -168 -5 191 -215 c124 -140 202 -220 223 -228 66 -28
86 -13 297 225 l193 218 -168 5 -169 5 -3 32 c-6 56 15 171 42 228 35 78 111
149 201 190 54 25 78 42 89 64 42 80 -13 171 -102 171 -16 0 -67 -19 -113 -42z"/>
<path d="M48 1581 l-33 -29 0 -167 0 -167 33 -29 c24 -22 42 -29 72 -29 33 0
40 -4 45 -22 3 -13 41 -237 84 -499 43 -262 86 -489 94 -506 23 -44 90 -100
134 -112 53 -15 1993 -15 2046 0 44 12 111 68 134 112 8 17 51 244 94 506 43
262 81 486 84 499 5 18 12 22 45 22 30 0 48 7 72 29 l33 29 0 167 0 167 -33
29 -32 29 -1420 0 -1420 0 -32 -29z m965 -471 l27 -30 0 -321 c0 -358 -1 -363
-69 -395 -31 -15 -40 -15 -75 -3 -25 9 -49 27 -63 48 -23 34 -23 38 -23 346 0
308 0 312 23 346 43 64 126 69 180 9z m1134 19 c40 -34 43 -57 43 -377 0 -305
0 -309 -23 -343 -14 -21 -38 -39 -63 -48 -35 -12 -44 -12 -75 3 -68 32 -69 37
-69 394 l0 320 26 31 c40 48 115 57 161 20z m-568 -10 l31 -31 0 -332 c0 -319
-1 -334 -20 -359 -44 -56 -136 -56 -180 0 -19 25 -20 40 -20 359 l0 332 31 31
c26 26 38 31 79 31 41 0 53 -5 79 -31z"/>
</g>
</svg>
