<?xml version="1.0" standalone="no"?>
<!DOCTYPE svg PUBLIC "-//W3C//DTD SVG 20010904//EN"
 "http://www.w3.org/TR/2001/REC-SVG-20010904/DTD/svg10.dtd">
<svg version="1.0" xmlns="http://www.w3.org/2000/svg"
 width="344.000000pt" height="344.000000pt" viewBox="0 0 344.000000 344.000000"
 preserveAspectRatio="xMidYMid meet">

<g transform="translate(0.000000,344.000000) scale(0.100000,-0.100000)"
fill="#000000" stroke="none">
<path d="M1273 2928 c-216 -216 -393 -396 -393 -400 0 -4 71 -8 157 -8 l158 0
262 262 263 263 263 -263 262 -262 158 0 c86 0 157 4 157 8 0 4 -177 184 -393
400 l-393 392 -54 0 -54 0 -393 -392z"/>
<path d="M268 2261 l-33 -29 0 -166 c0 -163 0 -166 25 -190 14 -14 43 -31 65
-38 l39 -13 91 -545 c98 -585 103 -605 169 -655 74 -56 47 -55 1096 -55 1049
0 1022 -1 1096 55 66 50 71 70 169 655 l91 545 39 13 c22 7 51 24 65 38 25 24
25 27 25 190 l0 166 -33 29 -32 29 -1420 0 -1420 0 -32 -29z m1072 -459 c19
-19 30 -44 35 -73 3 -24 5 -199 3 -389 -3 -377 -4 -381 -64 -408 -48 -23 -93
-15 -130 22 l-34 34 0 382 c0 339 2 385 17 410 21 36 47 48 101 49 35 1 49 -5
72 -27z m459 -3 l31 -31 0 -390 0 -390 -34 -34 c-28 -28 -42 -34 -76 -34 -34
0 -48 6 -76 34 l-34 34 0 390 0 390 31 31 c26 26 38 31 79 31 41 0 53 -5 79
-31z m434 20 c56 -25 57 -33 57 -449 l0 -382 -34 -34 c-39 -39 -89 -45 -135
-18 -56 33 -56 31 -59 404 -2 190 0 365 3 389 12 84 90 125 168 90z"/>
</g>
</svg>
