<?xml version="1.0" standalone="no"?>
<!DOCTYPE svg PUBLIC "-//W3C//DTD SVG 20010904//EN"
 "http://www.w3.org/TR/2001/REC-SVG-20010904/DTD/svg10.dtd">
<svg version="1.0" xmlns="http://www.w3.org/2000/svg"
 width="2291.000000pt" height="969.000000pt" viewBox="0 0 2291.000000 969.000000"
 preserveAspectRatio="xMidYMid meet">

<g transform="translate(0.000000,969.000000) scale(0.100000,-0.100000)"
fill="#000000" stroke="none">
<path d="M9155 9673 c-33 -8 -76 -18 -96 -22 -78 -17 -168 -98 -223 -202 -15
-30 -42 -74 -58 -98 -16 -25 -38 -65 -48 -90 -19 -48 -90 -185 -158 -306 -22
-38 -84 -150 -139 -248 -159 -288 -166 -299 -213 -372 -25 -39 -63 -104 -84
-145 -35 -67 -110 -190 -214 -349 -19 -30 -48 -79 -65 -109 -46 -87 -119 -200
-159 -248 -21 -25 -50 -66 -65 -92 -14 -26 -79 -116 -142 -200 -64 -84 -142
-190 -173 -235 -52 -74 -119 -158 -219 -271 -20 -23 -57 -74 -84 -114 -26 -40
-86 -115 -134 -166 -47 -51 -122 -140 -166 -197 -44 -57 -107 -133 -141 -169
-34 -36 -76 -85 -93 -110 -18 -25 -49 -63 -69 -85 -21 -22 -58 -65 -82 -95
-49 -59 -97 -114 -176 -200 -28 -30 -66 -73 -85 -94 -19 -22 -57 -62 -85 -90
-29 -28 -73 -78 -100 -111 -62 -79 -225 -252 -518 -548 -131 -133 -262 -272
-292 -309 -29 -36 -79 -88 -111 -115 -32 -26 -110 -100 -174 -164 -64 -64
-146 -141 -181 -170 -36 -30 -84 -77 -106 -105 -22 -28 -68 -75 -103 -105 -34
-30 -120 -108 -189 -174 -140 -132 -273 -254 -335 -306 -31 -26 -157 -138
-241 -214 -186 -169 -402 -355 -461 -398 -24 -17 -43 -36 -43 -44 0 -7 -10
-13 -23 -13 -13 0 -36 -14 -53 -31 -16 -17 -53 -47 -82 -66 -28 -19 -55 -40
-60 -47 -4 -6 -42 -37 -84 -69 -42 -32 -80 -62 -83 -67 -3 -5 -41 -35 -83 -66
-42 -32 -97 -76 -122 -99 -25 -23 -83 -68 -130 -100 -47 -32 -105 -77 -130
-99 -25 -23 -82 -67 -125 -99 -44 -31 -129 -93 -189 -138 -113 -83 -232 -154
-239 -141 -3 4 -8 30 -11 57 -18 130 -59 207 -171 322 -50 50 -102 96 -115
101 -32 12 -150 101 -157 118 -11 28 -111 84 -188 105 -153 41 -328 18 -442
-58 -96 -64 -298 -296 -376 -434 -13 -24 -41 -71 -61 -104 -20 -33 -40 -71
-43 -85 -3 -14 -15 -43 -26 -65 -23 -47 -84 -228 -98 -294 -6 -25 -15 -64 -21
-86 -16 -60 -22 -393 -7 -411 6 -8 15 -31 20 -52 4 -20 13 -58 18 -84 13 -59
79 -191 123 -245 18 -22 46 -57 62 -78 37 -48 134 -119 216 -159 61 -30 88
-39 185 -65 86 -23 429 -18 535 8 25 6 65 15 90 21 25 5 67 14 94 19 27 6 72
22 100 35 28 13 65 27 81 31 17 3 58 20 93 36 34 16 66 29 71 29 11 0 123 58
136 71 5 5 15 9 23 9 7 0 39 17 70 38 31 21 84 53 117 71 33 18 78 46 99 62
22 16 46 29 53 29 8 0 39 19 69 43 30 23 70 52 87 65 18 13 43 34 57 47 14 13
41 31 60 39 19 8 56 32 83 53 77 62 360 276 521 396 50 37 111 84 136 105 24
20 65 50 90 66 45 29 101 75 213 177 34 30 80 66 102 80 22 13 63 44 92 69 28
25 86 74 129 110 42 36 96 82 119 102 23 21 45 38 49 38 15 0 76 49 167 135
117 109 170 155 179 155 3 0 15 10 27 23 34 38 260 238 317 281 56 42 96 78
331 296 74 69 200 186 280 260 80 74 279 267 444 428 164 161 315 304 335 318
20 14 36 29 36 34 0 18 435 461 449 458 10 -2 15 -20 16 -63 5 -127 73 -315
159 -440 51 -74 159 -171 226 -202 37 -18 138 -49 200 -63 61 -13 235 -9 315
9 28 5 66 13 85 16 19 4 44 10 55 15 11 4 64 27 119 50 54 22 118 54 142 70
23 17 45 30 49 30 11 0 128 82 171 119 23 20 75 63 115 96 87 71 189 171 242
238 44 54 143 131 157 122 6 -3 10 -18 10 -32 0 -14 5 -44 11 -67 6 -22 15
-59 21 -81 17 -67 30 -96 83 -188 59 -103 82 -129 161 -182 66 -45 99 -62 179
-90 75 -28 349 -46 390 -26 11 5 34 12 50 14 17 3 47 10 68 16 91 27 114 33
137 37 43 9 192 77 221 101 9 8 36 22 60 31 24 9 85 44 134 77 50 33 103 67
120 75 16 8 64 48 106 88 42 39 78 72 81 72 2 0 40 -35 84 -77 117 -114 177
-159 268 -202 91 -42 144 -59 291 -90 81 -17 293 -23 370 -11 39 6 104 15 145
20 41 5 98 13 125 19 28 5 70 14 95 19 25 5 83 22 130 37 47 14 103 32 125 38
22 6 76 25 120 43 79 31 99 40 288 128 55 25 104 46 110 46 7 0 23 9 37 20 14
11 31 20 38 20 7 0 45 21 85 48 40 26 86 54 102 62 17 8 75 60 131 115 101
101 116 123 177 270 79 191 99 242 104 263 7 28 46 39 88 23 19 -6 98 -11 199
-11 l168 0 -5 -27 c-4 -16 -11 -50 -17 -78 -6 -27 -14 -66 -17 -85 -3 -19 -9
-40 -14 -46 -4 -5 -11 -47 -15 -91 -5 -61 -3 -93 9 -130 9 -26 21 -68 27 -93
38 -143 112 -254 237 -352 102 -79 103 -80 273 -120 57 -14 220 -14 285 0 205
43 266 61 337 98 45 24 48 24 85 9 35 -15 114 -38 292 -85 79 -22 222 -27 275
-11 17 5 50 15 74 21 86 22 186 140 332 390 42 73 66 87 75 43 15 -73 29 -107
58 -149 36 -52 132 -117 198 -134 48 -12 165 -46 215 -61 17 -5 39 -9 50 -9
10 0 43 -9 72 -20 28 -11 54 -20 57 -20 3 1 29 -3 58 -6 69 -10 81 -9 152 5
93 20 163 59 230 127 96 99 197 216 214 249 33 63 181 235 202 235 4 0 9 -19
12 -42 10 -86 28 -145 66 -223 74 -150 178 -223 391 -275 19 -5 56 -14 82 -21
71 -17 187 -2 373 51 22 6 56 15 75 19 71 16 359 150 429 200 16 12 32 21 36
21 4 0 27 14 52 30 24 17 46 30 49 30 3 0 35 -27 70 -59 69 -63 219 -146 292
-162 23 -5 61 -14 85 -21 121 -33 383 4 545 78 29 13 57 24 63 24 27 0 200 89
254 130 33 25 86 59 118 76 33 16 78 46 102 67 24 20 49 37 57 37 8 0 30 -24
49 -53 66 -102 136 -165 239 -213 73 -35 100 -44 125 -44 13 0 26 -4 29 -9 14
-21 242 -38 298 -22 21 6 57 16 81 22 150 38 427 168 594 279 45 30 103 68
128 84 92 57 273 216 323 284 61 82 107 174 127 248 8 32 21 66 28 78 8 12 20
39 27 61 7 22 16 45 20 50 3 6 12 30 19 55 7 25 17 54 23 64 22 41 19 150 -6
225 -44 135 -130 222 -246 250 -30 8 -67 20 -81 28 -23 14 -29 14 -57 -1 -17
-9 -41 -16 -52 -16 -12 0 -31 -5 -42 -11 -25 -14 -47 3 -30 23 5 7 27 45 47
83 20 39 43 77 51 86 8 8 14 22 14 30 0 8 18 40 40 72 22 31 40 63 40 70 0 18
120 252 180 351 28 47 69 124 91 170 22 47 44 88 50 91 23 15 86 114 98 155 7
25 17 53 23 64 5 10 10 42 10 71 1 101 -40 191 -126 275 -74 73 -128 109 -265
179 -57 29 -127 72 -156 95 -31 26 -71 47 -101 55 -27 7 -65 17 -84 22 -36 11
-164 7 -212 -6 -20 -5 -36 0 -70 22 -46 31 -73 40 -208 72 -68 16 -122 20
-265 20 -99 0 -196 -4 -215 -9 -19 -5 -62 -14 -95 -21 -100 -20 -137 -34 -325
-121 -73 -34 -199 -107 -342 -200 -54 -35 -117 -75 -140 -90 -24 -15 -71 -51
-104 -80 -34 -29 -99 -85 -145 -124 -90 -77 -320 -309 -380 -384 l-36 -45 -24
50 c-28 61 -167 204 -225 233 -129 65 -344 86 -489 49 -111 -29 -154 -45 -244
-90 -94 -47 -95 -46 -121 35 -8 24 -26 59 -42 80 -15 20 -26 42 -23 50 3 8 26
20 51 27 25 8 63 22 85 32 21 11 43 19 48 19 6 0 25 8 43 19 19 10 63 28 98
40 36 12 74 26 85 31 11 5 31 11 45 14 14 2 43 10 65 16 90 26 124 32 205 42
96 11 525 13 640 3 45 -4 89 -3 112 4 21 6 57 16 81 23 89 25 196 132 237 238
17 43 158 321 171 336 5 6 18 37 29 68 11 32 38 93 60 137 22 43 40 89 40 102
0 13 5 28 12 35 39 39 14 193 -47 298 -26 45 -88 100 -141 127 -62 32 -186 59
-234 52 -25 -4 -72 -10 -105 -15 -74 -11 -155 -26 -215 -41 -25 -6 -67 -14
-95 -19 -86 -16 -148 -28 -195 -40 -64 -16 -134 -29 -210 -40 -36 -5 -85 -14
-110 -20 -49 -12 -107 -25 -172 -39 -46 -10 -80 -20 -143 -44 -38 -14 -55 -19
-165 -47 -25 -6 -74 -24 -110 -40 -36 -15 -85 -35 -110 -43 -25 -8 -101 -38
-170 -66 -68 -28 -128 -51 -132 -51 -4 0 -29 -13 -55 -30 -26 -16 -53 -30 -61
-30 -8 0 -26 -9 -40 -19 -15 -10 -106 -59 -203 -108 -97 -49 -190 -99 -206
-111 -17 -12 -42 -26 -57 -31 -14 -6 -72 -41 -128 -79 -57 -38 -146 -94 -198
-125 -131 -78 -203 -137 -253 -207 -23 -33 -48 -60 -56 -60 -8 0 -29 11 -47
25 -18 14 -38 25 -45 25 -7 0 -42 18 -78 39 -64 38 -88 47 -177 70 -51 13
-118 14 -158 2 -17 -5 -51 -15 -76 -22 -101 -28 -146 -76 -240 -254 -127 -239
-209 -385 -217 -385 -3 0 -26 15 -52 34 -85 62 -195 132 -251 159 -30 15 -70
36 -89 47 -18 12 -78 31 -132 44 l-98 23 -99 -22 c-68 -15 -113 -32 -143 -53
-41 -28 -118 -107 -164 -167 l-20 -26 -1 48 c-3 149 -127 325 -262 372 -51 18
-189 88 -237 120 -22 14 -58 32 -80 38 -22 6 -58 17 -81 23 -63 18 -204 1
-278 -35 -57 -27 -146 -115 -185 -181 -71 -122 -94 -154 -108 -154 -8 0 -29
11 -46 24 -66 48 -133 78 -246 107 -112 29 -122 30 -281 25 -238 -7 -410 -34
-498 -80 -16 -8 -60 -24 -98 -34 -38 -11 -85 -29 -104 -41 -19 -11 -46 -26
-60 -31 -14 -6 -48 -22 -77 -36 -28 -13 -58 -24 -66 -24 -14 0 -158 -94 -404
-263 -51 -35 -116 -87 -145 -115 -29 -28 -71 -64 -93 -81 -60 -44 -424 -416
-486 -496 -29 -38 -88 -107 -130 -153 -90 -97 -137 -165 -251 -361 -107 -183
-139 -244 -183 -349 -12 -28 -34 -54 -60 -72 -45 -31 -86 -65 -155 -127 -69
-63 -85 -58 -50 15 11 22 20 49 20 58 0 23 179 379 221 439 20 28 41 70 48 95
14 51 44 115 80 175 14 22 47 83 74 135 27 52 57 106 66 120 9 14 27 48 40 75
60 132 106 215 172 312 16 23 29 45 29 48 0 4 10 21 22 37 11 17 42 71 68 122
46 92 67 127 169 289 64 101 65 103 80 137 6 14 20 39 30 55 11 17 20 37 20
45 1 8 19 41 41 73 22 31 40 60 40 63 0 3 14 25 30 49 17 24 30 46 30 50 0 3
12 24 27 48 15 23 32 49 38 59 5 9 25 37 43 63 17 25 32 50 32 56 0 26 133
252 209 355 17 22 49 78 71 125 23 46 56 109 75 139 19 30 35 62 35 72 0 10 9
46 21 80 22 65 20 87 -18 210 -20 65 -89 156 -154 204 -29 21 -74 57 -99 78
-25 22 -68 49 -96 62 -52 23 -91 48 -185 121 -104 80 -179 106 -309 107 -84 0
-146 -12 -205 -39 -49 -23 -155 -127 -180 -175 -34 -67 -176 -316 -234 -410
-33 -52 -87 -149 -121 -214 -35 -66 -99 -179 -143 -250 -44 -72 -100 -169
-125 -216 -58 -112 -116 -209 -204 -345 -25 -38 -61 -97 -79 -130 -18 -33 -40
-69 -49 -80 -9 -11 -36 -54 -61 -95 -24 -41 -62 -100 -84 -130 -22 -30 -47
-68 -55 -85 -8 -16 -36 -62 -62 -101 -27 -40 -48 -76 -48 -81 0 -6 -10 -18
-21 -29 -23 -20 -114 -140 -145 -189 -23 -37 -139 -192 -198 -265 -25 -30 -62
-79 -83 -108 -81 -114 -107 -146 -229 -281 -28 -31 -69 -81 -91 -111 -23 -30
-76 -93 -118 -140 -43 -47 -96 -112 -118 -145 -44 -67 -225 -255 -244 -255
-13 0 61 147 103 205 26 36 124 223 124 237 0 6 24 51 53 101 30 51 71 123 92
161 20 38 51 90 69 115 17 25 36 57 42 71 6 14 19 43 29 65 17 41 180 328 239
422 18 29 39 72 47 95 7 24 69 135 137 248 68 113 133 227 143 253 23 58 91
179 153 270 25 38 46 74 46 81 0 7 17 39 38 72 21 32 44 75 52 94 13 32 72
139 158 285 19 33 57 103 84 155 27 52 55 101 63 110 7 8 18 26 23 40 5 14 33
63 61 109 28 46 51 96 51 110 0 15 8 37 17 50 35 51 10 238 -43 319 -36 55
-101 115 -167 155 -38 23 -81 50 -96 59 -14 9 -53 31 -87 49 -34 17 -102 62
-152 99 -91 68 -103 73 -237 100 -22 5 -47 11 -55 13 -8 2 -42 -2 -75 -10z
m176 -400 c50 -32 116 -74 147 -94 31 -20 91 -56 132 -79 129 -75 147 -111 90
-186 -16 -21 -30 -43 -30 -47 0 -5 -23 -47 -51 -95 -28 -47 -76 -134 -107
-192 -30 -58 -63 -116 -72 -130 -9 -14 -41 -69 -71 -123 -30 -55 -59 -106 -64
-115 -49 -81 -86 -147 -104 -183 -11 -24 -29 -57 -38 -74 -10 -16 -52 -91 -92
-165 -41 -74 -98 -175 -126 -225 -29 -49 -62 -108 -74 -130 -12 -22 -37 -67
-56 -100 -19 -33 -46 -84 -61 -113 -14 -30 -44 -82 -65 -117 -37 -61 -94 -165
-127 -230 -8 -16 -37 -67 -64 -113 -27 -46 -64 -113 -83 -150 -19 -37 -50 -93
-67 -124 -18 -31 -63 -112 -101 -180 -37 -68 -79 -143 -94 -168 -90 -153 -294
-564 -343 -690 -11 -30 -29 -73 -39 -95 -10 -22 -22 -51 -26 -65 -4 -14 -13
-38 -20 -55 -31 -76 -35 -87 -35 -109 0 -13 -9 -49 -20 -82 -29 -85 -53 -297
-39 -346 10 -39 55 -78 89 -78 32 0 180 91 287 176 152 122 505 483 733 750
60 70 167 194 218 252 30 35 71 84 91 110 19 26 42 54 50 62 23 22 74 86 201
255 62 83 126 166 142 185 15 19 54 71 86 115 32 44 101 139 154 210 52 72
116 164 143 205 89 139 100 155 137 206 21 28 38 54 38 58 0 6 34 60 98 158
13 20 31 50 40 65 67 114 85 143 97 153 8 7 15 17 15 22 0 5 15 33 33 61 45
70 94 152 125 207 13 25 40 72 60 105 19 33 48 85 65 115 16 30 34 60 39 66 5
7 19 31 31 55 30 57 182 321 214 372 14 22 35 59 48 81 64 118 158 283 169
296 7 8 19 30 26 48 14 37 54 72 80 72 10 0 39 -16 66 -35 40 -29 213 -144
285 -190 90 -57 158 -111 168 -131 13 -28 11 -32 -47 -121 -21 -32 -52 -83
-69 -113 -16 -30 -44 -79 -62 -108 -17 -29 -31 -55 -31 -58 0 -3 -8 -17 -18
-32 -38 -55 -94 -145 -118 -188 -13 -24 -36 -65 -50 -91 -15 -27 -29 -50 -33
-53 -3 -3 -13 -18 -21 -35 -8 -16 -27 -49 -42 -72 -15 -23 -28 -45 -28 -49 0
-4 -10 -24 -23 -43 -27 -42 -81 -130 -110 -181 -10 -19 -28 -47 -38 -62 -11
-15 -25 -39 -32 -55 -11 -25 -34 -66 -132 -237 -16 -29 -38 -63 -47 -76 -10
-14 -18 -28 -18 -31 0 -4 -21 -43 -47 -86 -25 -43 -63 -107 -83 -143 -20 -36
-47 -83 -60 -105 -19 -33 -72 -129 -197 -360 -6 -11 -20 -38 -31 -60 -11 -22
-39 -76 -63 -120 -23 -44 -62 -120 -86 -170 -24 -49 -51 -101 -59 -115 -18
-31 -234 -469 -234 -475 0 -3 -13 -32 -29 -65 -17 -34 -35 -78 -42 -98 -6 -20
-22 -57 -34 -82 -27 -53 -81 -222 -95 -299 -18 -97 -13 -184 13 -222 25 -37
78 -68 117 -68 85 -1 250 60 357 134 21 14 41 25 45 25 16 0 176 111 257 178
46 39 96 76 110 83 79 40 151 101 151 128 0 29 129 291 218 444 100 170 193
292 408 537 118 133 294 302 445 425 13 11 47 38 74 61 107 88 327 232 430
283 288 142 422 186 627 207 136 14 158 14 235 0 162 -30 251 -98 322 -246 35
-73 36 -78 36 -190 0 -110 -2 -119 -38 -206 -20 -51 -37 -97 -37 -103 0 -10
-36 -87 -77 -166 -9 -16 -24 -46 -34 -65 -9 -19 -27 -44 -39 -55 -12 -11 -37
-42 -55 -70 -73 -114 -365 -353 -581 -476 -154 -88 -317 -176 -391 -210 -49
-23 -109 -52 -134 -65 -59 -30 -359 -151 -424 -171 -27 -8 -84 -28 -125 -43
-41 -16 -106 -39 -144 -52 -91 -32 -110 -56 -110 -141 0 -103 53 -180 160
-232 103 -51 183 -54 374 -15 134 27 196 44 263 74 32 14 64 26 72 26 9 0 23
4 33 9 9 6 42 21 72 34 227 103 413 202 556 298 115 76 131 39 57 -131 -23
-54 -29 -70 -59 -150 -45 -125 -70 -165 -131 -216 -32 -25 -65 -49 -73 -52 -8
-3 -33 -18 -55 -33 -58 -39 -392 -200 -512 -248 -123 -48 -350 -114 -453 -131
-41 -6 -86 -16 -100 -20 -65 -21 -172 -32 -232 -25 -35 4 -97 10 -138 14 -182
17 -377 153 -463 323 -32 64 -40 90 -44 157 -3 45 -11 88 -17 97 -11 15 -16
14 -52 -1 -21 -9 -52 -28 -69 -44 -16 -15 -52 -43 -78 -62 -51 -36 -244 -188
-287 -226 -67 -59 -86 -73 -96 -73 -6 0 -17 -7 -24 -15 -7 -8 -37 -30 -67 -47
-30 -18 -67 -40 -82 -49 -33 -20 -129 -73 -201 -111 -30 -16 -77 -34 -105 -40
-27 -5 -79 -19 -115 -31 -45 -14 -90 -20 -145 -20 -70 1 -90 6 -155 35 -69 32
-79 41 -123 106 -72 110 -90 186 -84 370 3 81 9 170 15 197 5 28 15 77 22 110
27 134 197 497 356 757 39 65 46 118 14 118 -21 0 -75 -49 -135 -124 -47 -59
-99 -118 -140 -162 -16 -17 -73 -81 -125 -140 -52 -60 -131 -147 -176 -194
-44 -47 -98 -106 -120 -131 -151 -179 -651 -691 -740 -759 -73 -56 -101 -76
-115 -85 -9 -5 -48 -29 -87 -53 -66 -41 -175 -88 -272 -118 -26 -8 -89 -14
-153 -14 -88 0 -115 4 -152 21 -98 46 -178 150 -211 273 -29 108 -11 324 41
486 13 41 31 102 40 135 9 33 20 65 24 70 4 6 13 30 20 55 7 25 22 68 33 95
11 28 33 82 48 120 60 151 69 172 94 221 14 29 26 58 26 66 0 8 4 18 9 23 8 9
60 105 118 216 25 48 23 79 -6 79 -9 0 -38 -26 -64 -57 -26 -32 -87 -105 -134
-163 -87 -105 -205 -242 -233 -270 -8 -8 -51 -55 -95 -105 -44 -49 -117 -128
-162 -175 -44 -47 -107 -114 -140 -150 -180 -199 -335 -359 -750 -773 -288
-289 -449 -447 -578 -567 -207 -194 -256 -240 -370 -345 -123 -113 -256 -236
-265 -245 -3 -3 -39 -35 -80 -71 -41 -36 -146 -128 -234 -205 -87 -76 -172
-150 -189 -164 -17 -14 -67 -57 -111 -95 -86 -75 -188 -160 -220 -185 -11 -8
-38 -31 -60 -51 -52 -45 -181 -151 -255 -209 -32 -25 -87 -69 -122 -98 -70
-59 -74 -61 -139 -112 -25 -19 -47 -37 -50 -40 -3 -3 -45 -37 -95 -75 -49 -38
-92 -72 -95 -75 -3 -3 -21 -17 -40 -30 -19 -13 -40 -29 -46 -35 -6 -5 -66 -50
-134 -100 -67 -49 -190 -141 -274 -204 -83 -62 -160 -117 -171 -121 -12 -4
-27 -16 -35 -25 -12 -14 -105 -82 -214 -154 -11 -8 -46 -32 -78 -53 -31 -21
-59 -38 -61 -38 -3 0 -43 -23 -89 -51 -94 -58 -250 -139 -267 -139 -6 0 -19
-4 -29 -9 -78 -40 -259 -107 -317 -117 -78 -13 -149 -34 -156 -46 -11 -18
-301 -18 -306 -1 -3 7 -34 22 -69 33 -156 48 -265 179 -294 355 -13 73 -8 247
8 345 21 128 105 335 192 475 24 39 51 86 61 105 9 19 49 72 88 117 135 156
204 179 303 101 29 -23 55 -44 58 -48 3 -3 41 -30 84 -60 44 -30 106 -79 138
-109 57 -53 58 -55 58 -107 0 -49 -4 -57 -53 -116 -115 -136 -150 -204 -151
-298 -1 -60 23 -96 85 -127 52 -27 66 -25 254 22 98 25 167 51 280 105 82 39
152 75 155 80 3 4 32 25 65 46 33 22 123 86 200 144 77 58 150 112 161 120 12
8 50 35 85 59 35 25 92 68 125 95 34 28 88 71 120 97 97 75 299 233 304 239 3
3 21 17 40 31 19 15 46 37 60 49 14 12 41 34 60 48 19 15 51 40 71 57 19 16
57 48 84 70 27 22 53 45 59 50 6 6 65 55 131 110 66 54 140 117 165 140 25 22
83 72 129 110 46 39 91 77 101 85 29 26 171 153 240 215 98 88 138 124 205
184 135 120 592 560 845 811 316 315 698 711 891 925 30 33 56 62 59 65 31 31
150 162 205 225 39 44 93 104 120 134 28 30 59 65 70 77 11 12 67 80 125 150
58 70 132 157 165 194 33 36 69 77 80 91 11 15 89 109 172 210 123 148 261
319 436 539 18 23 134 175 190 250 27 36 60 80 74 98 14 18 39 51 55 75 16 23
58 83 94 132 35 50 76 108 91 130 64 96 139 212 149 230 6 11 29 49 50 83 21
35 53 87 70 115 16 29 49 80 72 115 23 35 42 67 42 70 0 4 11 23 24 42 13 19
37 60 53 90 16 30 54 93 82 140 29 47 64 105 77 130 50 93 134 241 144 255 4
6 24 42 45 80 38 69 59 108 118 215 60 109 118 217 172 321 29 59 61 114 70
123 28 27 63 18 156 -41z m10859 -763 c8 -16 -10 -61 -108 -262 -154 -315
-182 -374 -182 -385 0 -5 -11 -20 -24 -32 -21 -20 -31 -22 -73 -17 -144 19
-318 25 -443 17 -74 -5 -144 -9 -155 -10 -21 0 -130 -16 -180 -26 -16 -3 -55
-10 -85 -16 -30 -6 -64 -14 -75 -19 -48 -18 -93 -30 -113 -30 -11 0 -24 -4
-27 -10 -3 -5 -15 -10 -26 -10 -10 0 -27 -4 -37 -10 -9 -5 -50 -21 -90 -35
-41 -14 -98 -36 -128 -50 -30 -14 -58 -25 -63 -25 -26 0 -381 -177 -531 -265
-36 -20 -90 -51 -120 -68 -30 -17 -98 -59 -150 -94 -93 -62 -112 -69 -144 -57
-13 5 -99 139 -173 267 -20 34 -15 64 12 84 58 43 95 67 173 112 45 27 91 56
101 65 9 9 21 16 25 16 4 0 26 13 49 29 23 15 69 42 102 60 33 17 80 43 105
58 83 49 163 90 594 304 32 16 65 29 73 29 7 0 21 4 31 9 52 26 111 49 142 56
19 4 55 16 80 27 74 32 81 34 170 57 47 12 116 31 153 41 38 11 99 26 135 34
37 8 85 20 107 26 22 6 67 15 100 20 33 5 80 14 105 20 58 14 123 29 180 39
25 5 72 14 105 21 123 25 272 47 322 49 43 1 54 -3 63 -19z m1485 -1024 c55
-27 102 -52 105 -55 13 -16 133 -111 140 -111 14 0 50 51 50 70 0 26 36 53 70
52 16 0 54 -18 88 -40 54 -37 100 -64 258 -148 34 -17 74 -40 88 -49 34 -23
34 -61 1 -87 -14 -11 -39 -48 -56 -82 -16 -33 -44 -88 -63 -121 -47 -87 -154
-290 -188 -358 -16 -32 -63 -120 -105 -195 -42 -75 -105 -193 -140 -262 -35
-69 -68 -132 -72 -140 -5 -8 -15 -28 -22 -45 -8 -16 -28 -53 -45 -82 -18 -30
-60 -117 -93 -196 -131 -301 -129 -296 -112 -344 35 -96 85 -97 258 -6 38 19
116 60 175 89 59 30 109 58 112 63 3 5 29 21 58 36 28 15 73 42 101 61 50 35
72 40 96 25 10 -7 12 -21 7 -55 -4 -25 -11 -48 -17 -51 -5 -4 -9 -13 -9 -20 0
-8 -12 -40 -26 -71 -14 -31 -32 -80 -39 -108 -20 -75 -68 -178 -96 -203 -63
-57 -132 -115 -157 -130 -15 -10 -49 -35 -77 -55 -27 -21 -55 -38 -61 -38 -5
0 -19 -8 -30 -17 -75 -68 -307 -193 -454 -244 -165 -57 -305 -41 -408 46 -35
29 -77 89 -99 139 -8 16 -13 69 -13 125 0 79 5 109 26 166 14 39 30 84 34 102
8 32 59 137 107 220 23 40 25 83 4 83 -5 0 -31 -26 -60 -57 -28 -32 -82 -91
-119 -132 -326 -360 -754 -669 -1057 -763 -52 -16 -188 -38 -235 -38 -159 1
-323 122 -412 305 -32 65 -53 67 -135 14 -80 -52 -87 -57 -144 -88 -24 -13
-76 -43 -114 -66 -114 -69 -413 -215 -439 -215 -8 0 -17 -4 -20 -9 -3 -5 -20
-11 -38 -14 -18 -3 -55 -11 -83 -18 -61 -16 -166 -16 -219 -1 -57 16 -115 61
-142 110 -22 39 -24 54 -24 179 0 75 5 152 10 170 6 18 15 50 21 71 19 61 125
268 182 355 54 83 63 97 179 285 34 57 75 122 90 145 47 73 98 176 98 198 0
35 -29 59 -70 59 -47 0 -123 -54 -288 -203 -134 -121 -410 -406 -503 -517 -34
-41 -83 -98 -108 -126 -81 -90 -105 -118 -171 -199 -35 -44 -81 -98 -101 -120
-35 -38 -106 -125 -159 -195 -78 -103 -148 -189 -191 -233 l-48 -50 -62 7
c-34 3 -67 10 -73 15 -6 5 -29 12 -51 15 -88 14 -105 19 -111 27 -3 5 -18 9
-34 9 -16 0 -32 5 -35 10 -3 6 -20 10 -37 10 -17 0 -40 7 -50 17 -21 19 -24
70 -4 98 7 11 45 81 84 155 118 226 144 275 152 285 4 6 30 53 58 105 79 151
124 234 133 246 5 5 32 57 60 115 29 57 65 123 80 146 16 23 29 48 29 57 0 8
4 17 9 20 5 4 42 68 81 144 105 199 141 263 163 296 44 63 18 136 -38 106 -73
-39 -573 -525 -881 -855 -267 -287 -508 -595 -669 -856 -5 -9 -19 -29 -29 -45
-11 -16 -44 -66 -73 -110 -34 -53 -62 -84 -77 -88 -24 -6 -69 4 -105 24 -12 6
-50 17 -84 25 -34 7 -89 21 -122 30 -33 9 -71 19 -85 22 -33 7 -90 50 -90 69
0 20 -39 18 -75 -4 -34 -21 -137 -78 -177 -99 -56 -29 -223 -66 -303 -67 -136
-2 -247 61 -300 169 -24 49 -33 213 -15 295 11 55 53 180 71 212 5 10 9 24 9
32 0 9 12 37 28 63 15 26 38 73 52 103 13 30 32 67 42 82 10 14 18 30 18 36 0
5 7 15 15 22 14 12 105 157 105 168 0 10 94 146 172 248 85 112 114 164 105
188 -10 24 -31 19 -68 -15 -19 -17 -62 -58 -97 -90 -34 -33 -79 -70 -100 -84
-20 -13 -55 -37 -77 -54 -184 -134 -362 -240 -495 -294 -25 -10 -54 -22 -65
-27 -27 -11 -169 -30 -223 -30 -118 0 -207 60 -264 178 -32 66 -32 69 -32 214
0 102 4 152 12 160 7 7 12 19 12 28 0 29 43 121 128 277 45 83 82 157 82 164
0 7 8 22 18 33 11 12 26 40 35 62 9 23 27 58 41 79 14 21 26 42 26 48 0 5 22
53 49 106 49 96 69 135 174 333 92 172 177 342 177 351 0 8 36 62 57 84 17 19
71 16 103 -7 15 -11 88 -50 161 -86 74 -37 142 -73 152 -82 21 -19 22 -60 1
-90 -8 -13 -46 -82 -83 -155 -38 -73 -91 -174 -119 -224 -29 -51 -63 -114 -76
-140 -58 -117 -176 -343 -200 -383 -14 -25 -46 -88 -72 -140 -25 -52 -50 -103
-55 -113 -13 -24 8 -97 34 -119 34 -32 100 -23 183 22 239 132 467 328 710
610 22 24 59 67 84 96 90 103 209 264 300 407 43 67 43 67 90 67 25 0 50 -4
56 -10 15 -15 125 -80 135 -80 5 0 33 -15 62 -33 28 -19 64 -41 80 -51 37 -22
35 -51 -9 -133 -48 -89 -159 -304 -304 -588 -64 -126 -136 -265 -159 -308 -23
-43 -46 -86 -50 -95 -5 -9 -19 -37 -31 -62 -12 -25 -70 -139 -127 -255 -117
-233 -111 -221 -148 -325 -50 -143 -43 -210 25 -225 31 -7 60 5 190 78 25 14
70 38 100 54 98 51 189 114 212 146 24 33 65 110 223 422 53 105 125 244 160
310 34 66 96 185 137 265 41 80 108 208 147 285 40 77 125 241 188 365 64 124
119 230 123 235 4 6 45 84 90 175 46 91 90 173 98 183 20 23 57 22 92 -3 16
-11 52 -33 82 -49 29 -16 90 -49 136 -75 45 -25 88 -46 96 -46 7 0 25 -11 40
-25 34 -32 35 -82 2 -122 -13 -15 -38 -55 -55 -88 -17 -33 -47 -87 -66 -120
-18 -33 -47 -85 -63 -115 -65 -123 -104 -194 -119 -217 -26 -39 -51 -83 -84
-148 -17 -33 -41 -78 -53 -100 -13 -22 -37 -65 -54 -96 -18 -31 -48 -80 -67
-109 -47 -70 -45 -131 5 -130 19 1 247 223 491 479 232 243 231 242 323 324
197 178 261 224 431 309 149 75 208 92 309 86 112 -7 184 -49 243 -142 23 -35
25 -48 25 -152 -1 -63 -6 -131 -13 -152 -41 -129 -228 -439 -409 -675 -41 -54
-81 -108 -88 -120 -16 -29 -11 -61 10 -65 22 -4 89 43 117 83 46 66 395 406
566 551 167 141 410 283 567 331 76 23 173 21 224 -5 47 -24 105 -85 129 -135
13 -27 15 -53 12 -109 -12 -162 -33 -240 -105 -373 -23 -44 -56 -107 -72 -140
-17 -33 -50 -91 -75 -130 -24 -38 -48 -77 -52 -85 -9 -20 -76 -124 -185 -288
-48 -73 -88 -135 -88 -139 0 -3 -17 -29 -38 -57 -78 -104 -113 -211 -80 -244
23 -23 86 -13 156 23 37 18 132 65 212 103 80 38 153 78 162 89 20 22 48 96
48 127 0 46 116 316 194 449 28 49 57 101 65 115 25 48 153 235 220 322 230
299 523 606 742 777 30 23 80 63 112 88 107 86 360 226 531 295 128 52 182 60
371 57 l170 -3 100 -48z"/>
<path d="M12670 6638 c-149 -61 -263 -131 -405 -247 -78 -64 -314 -300 -343
-344 -18 -26 -164 -210 -173 -217 -4 -3 -33 -45 -65 -95 -32 -49 -70 -106 -85
-125 -34 -44 -49 -110 -25 -110 9 0 24 4 34 9 9 5 44 19 77 32 141 52 474 218
483 241 2 4 8 8 12 8 36 0 315 221 411 325 94 101 229 296 229 330 0 7 4 16 9
19 12 8 20 82 12 114 -15 57 -104 88 -171 60z"/>
<path d="M21395 7124 c-37 -9 -149 -54 -189 -76 -102 -55 -126 -70 -285 -178
-127 -87 -430 -370 -598 -560 -56 -64 -185 -236 -221 -295 -100 -163 -162
-289 -191 -385 -7 -25 -17 -54 -21 -65 -25 -67 -30 -103 -30 -208 0 -66 4
-118 10 -122 6 -3 10 -14 10 -24 0 -37 103 -111 155 -111 28 0 138 41 193 72
17 10 49 28 70 39 39 22 94 59 102 69 3 3 30 24 60 45 57 41 68 50 160 133 30
27 71 62 90 78 144 117 440 426 541 564 42 57 169 272 169 285 0 7 8 23 19 36
10 13 47 80 83 149 111 212 192 357 209 375 30 30 -8 81 -104 137 -62 36 -80
42 -142 44 -38 2 -79 1 -90 -2z m-315 -636 c-19 -29 -53 -86 -76 -126 -23 -41
-71 -105 -106 -142 -35 -38 -94 -104 -133 -147 -68 -75 -180 -182 -333 -318
-103 -91 -132 -87 -69 9 19 28 46 74 62 103 15 28 53 81 84 116 31 36 81 96
111 133 64 78 158 171 271 269 44 39 108 94 141 123 43 38 63 51 71 43 7 -7 1
-26 -23 -63z"/>
</g>
</svg>
