<svg width="19" height="30" viewBox="0 0 19 30" fill="none" xmlns="http://www.w3.org/2000/svg">
<path d="M19 10C19 15.5228 14.7467 20 9.5 20C4.25329 20 0 15.5228 0 10C0 4.47715 4.25329 0 9.5 0C14.7467 0 19 4.47715 19 10ZM2.48248 10C2.48248 14.0796 5.62433 17.3869 9.5 17.3869C13.3757 17.3869 16.5175 14.0796 16.5175 10C16.5175 5.92035 13.3757 2.61314 9.5 2.61314C5.62433 2.61314 2.48248 5.92035 2.48248 10Z" fill="white"/>
<line y1="-1.5" x2="11.9563" y2="-1.5" transform="matrix(0.343848 0.939026 -0.927197 0.374573 11.6472 18.1364)" stroke="white" stroke-width="3"/>
</svg>
