<svg xmlns="http://www.w3.org/2000/svg" xmlns:xlink="http://www.w3.org/1999/xlink"><defs>
<radialGradient id="paint0_radial_428_3447" cx="0" cy="0" r="1" gradientUnits="userSpaceOnUse" gradientTransform="translate(-0.683983 33.3094) rotate(180) scale(78.5161)">
<stop stop-color="#F9ED32"/>
<stop offset="0.36" stop-color="#EE2A7B"/>
<stop offset="0.44" stop-color="#D22A8A"/>
<stop offset="0.6" stop-color="#8B2AB2"/>
<stop offset="0.83" stop-color="#1B2AF0"/>
<stop offset="0.88" stop-color="#002AFF"/>
</radialGradient>

<filter id="filter0_d_385_2149" x="0.635986" y="0.636047" width="12.364" height="18.7279" filterUnits="userSpaceOnUse" color-interpolation-filters="sRGB">
<feFlood flood-opacity="0" result="BackgroundImageFix"/>
<feColorMatrix in="SourceAlpha" type="matrix" values="0 0 0 0 0 0 0 0 0 0 0 0 0 0 0 0 0 0 127 0" result="hardAlpha"/>
<feOffset dy="1"/>
<feGaussianBlur stdDeviation="1"/>
<feComposite in2="hardAlpha" operator="out"/>
<feColorMatrix type="matrix" values="0 0 0 0 0 0 0 0 0 0 0 0 0 0 0 0 0 0 0.45 0"/>
<feBlend mode="normal" in2="BackgroundImageFix" result="effect1_dropShadow_385_2149"/>
<feBlend mode="normal" in="SourceGraphic" in2="effect1_dropShadow_385_2149" result="shape"/>
</filter>

<filter id="filter0_d_385_2147" x="0" y="0.636047" width="12.364" height="18.7279" filterUnits="userSpaceOnUse" color-interpolation-filters="sRGB">
<feFlood flood-opacity="0" result="BackgroundImageFix"/>
<feColorMatrix in="SourceAlpha" type="matrix" values="0 0 0 0 0 0 0 0 0 0 0 0 0 0 0 0 0 0 127 0" result="hardAlpha"/>
<feOffset dy="1"/>
<feGaussianBlur stdDeviation="1"/>
<feComposite in2="hardAlpha" operator="out"/>
<feColorMatrix type="matrix" values="0 0 0 0 0 0 0 0 0 0 0 0 0 0 0 0 0 0 0.45 0"/>
<feBlend mode="normal" in2="BackgroundImageFix" result="effect1_dropShadow_385_2147"/>
<feBlend mode="normal" in="SourceGraphic" in2="effect1_dropShadow_385_2147" result="shape"/>
</filter>
</defs><symbol id="add-to-basket" viewBox="0 0 300.000000 299.000000" preserveAspectRatio="xMidYMid meet">

<g transform="translate(0.000000,299.000000) scale(0.100000,-0.100000)" fill="#000000" stroke="none">
<path d="M1729 2948 c-64 -31 -102 -60 -159 -117 -122 -123 -170 -232 -179
-411 l-6 -115 -169 -5 -168 -5 191 -215 c124 -140 202 -220 223 -228 66 -28
86 -13 297 225 l193 218 -168 5 -169 5 -3 32 c-6 56 15 171 42 228 35 78 111
149 201 190 54 25 78 42 89 64 42 80 -13 171 -102 171 -16 0 -67 -19 -113 -42z"/>
<path d="M48 1581 l-33 -29 0 -167 0 -167 33 -29 c24 -22 42 -29 72 -29 33 0
40 -4 45 -22 3 -13 41 -237 84 -499 43 -262 86 -489 94 -506 23 -44 90 -100
134 -112 53 -15 1993 -15 2046 0 44 12 111 68 134 112 8 17 51 244 94 506 43
262 81 486 84 499 5 18 12 22 45 22 30 0 48 7 72 29 l33 29 0 167 0 167 -33
29 -32 29 -1420 0 -1420 0 -32 -29z m965 -471 l27 -30 0 -321 c0 -358 -1 -363
-69 -395 -31 -15 -40 -15 -75 -3 -25 9 -49 27 -63 48 -23 34 -23 38 -23 346 0
308 0 312 23 346 43 64 126 69 180 9z m1134 19 c40 -34 43 -57 43 -377 0 -305
0 -309 -23 -343 -14 -21 -38 -39 -63 -48 -35 -12 -44 -12 -75 3 -68 32 -69 37
-69 394 l0 320 26 31 c40 48 115 57 161 20z m-568 -10 l31 -31 0 -332 c0 -319
-1 -334 -20 -359 -44 -56 -136 -56 -180 0 -19 25 -20 40 -20 359 l0 332 31 31
c26 26 38 31 79 31 41 0 53 -5 79 -31z"/>
</g>
</symbol><symbol id="basket-arrow" viewBox="0 0 27 17">
<path d="M16.1035 0.00546926C15.9209 -0.0136557 15.733 0.0171724 15.5605 0.101172C15.2175 0.268172 15 0.61761 15 0.99961V5.06797H2C0.895 5.06797 0 5.96297 0 7.06797V9.06797C0 10.173 0.895 11.068 2 11.068H15V15.1402C15 15.5232 15.2175 15.8717 15.5605 16.0387C15.7005 16.1077 15.851 16.1402 16 16.1402C16.219 16.1402 16.4362 16.0703 16.6152 15.9313L25.6855 8.85898C25.9285 8.66898 26.0703 8.38088 26.0703 8.07188C26.0703 7.76288 25.9285 7.47181 25.6855 7.28281L16.6152 0.210547C16.4642 0.0930474 16.2861 0.0245943 16.1035 0.00546926Z" fill="white"/>
</symbol><symbol id="beforeIcon-mobile" viewBox="0 0 48 48">
<circle cx="23.9901" cy="23.9901" r="23.9901" fill="white"/>
<path d="M18.0678 22.9353C17.6773 23.3258 17.6773 23.959 18.0678 24.3495L24.4318 30.7135C24.8223 31.104 25.4555 31.104 25.846 30.7135C26.2365 30.3229 26.2365 29.6898 25.846 29.2992L20.1891 23.6424L25.846 17.9855C26.2365 17.595 26.2365 16.9619 25.846 16.5713C25.4555 16.1808 24.8223 16.1808 24.4318 16.5713L18.0678 22.9353ZM19.7583 22.6424H18.7749V24.6424H19.7583V22.6424Z" fill="black"/>
</symbol><symbol id="beforeIcon" viewBox="0 0 9 16">
<path d="M0.292893 7.29289C-0.0976311 7.68342 -0.0976311 8.31658 0.292893 8.70711L6.65685 15.0711C7.04738 15.4616 7.68054 15.4616 8.07107 15.0711C8.46159 14.6805 8.46159 14.0474 8.07107 13.6569L2.41421 8L8.07107 2.34315C8.46159 1.95262 8.46159 1.31946 8.07107 0.928932C7.68054 0.538408 7.04738 0.538408 6.65685 0.928932L0.292893 7.29289ZM2 7H1L1 9H2L2 7Z" fill="black"/>
</symbol><symbol id="burger" viewBox="0 0 28 20">
<path d="M2 4H26C27.104 4 28 3.104 28 2C28 0.896 27.104 0 26 0H2C0.896 0 0 0.896 0 2C0 3.104 0.896 4 2 4ZM26 8H2C0.896 8 0 8.896 0 10C0 11.104 0.896 12 2 12H26C27.104 12 28 11.104 28 10C28 8.896 27.104 8 26 8ZM26 16H2C0.896 16 0 16.896 0 18C0 19.104 0.896 20 2 20H26C27.104 20 28 19.104 28 18C28 16.896 27.104 16 26 16Z" fill="white"/>
</symbol><symbol id="empty-basket" viewBox="0 0 344.000000 344.000000" preserveAspectRatio="xMidYMid meet">

<g transform="translate(0.000000,344.000000) scale(0.100000,-0.100000)" fill="#000000" stroke="none">
<path d="M1273 2928 c-216 -216 -393 -396 -393 -400 0 -4 71 -8 157 -8 l158 0
262 262 263 263 263 -263 262 -262 158 0 c86 0 157 4 157 8 0 4 -177 184 -393
400 l-393 392 -54 0 -54 0 -393 -392z"/>
<path d="M268 2261 l-33 -29 0 -166 c0 -163 0 -166 25 -190 14 -14 43 -31 65
-38 l39 -13 91 -545 c98 -585 103 -605 169 -655 74 -56 47 -55 1096 -55 1049
0 1022 -1 1096 55 66 50 71 70 169 655 l91 545 39 13 c22 7 51 24 65 38 25 24
25 27 25 190 l0 166 -33 29 -32 29 -1420 0 -1420 0 -32 -29z m1072 -459 c19
-19 30 -44 35 -73 3 -24 5 -199 3 -389 -3 -377 -4 -381 -64 -408 -48 -23 -93
-15 -130 22 l-34 34 0 382 c0 339 2 385 17 410 21 36 47 48 101 49 35 1 49 -5
72 -27z m459 -3 l31 -31 0 -390 0 -390 -34 -34 c-28 -28 -42 -34 -76 -34 -34
0 -48 6 -76 34 l-34 34 0 390 0 390 31 31 c26 26 38 31 79 31 41 0 53 -5 79
-31z m434 20 c56 -25 57 -33 57 -449 l0 -382 -34 -34 c-39 -39 -89 -45 -135
-18 -56 33 -56 31 -59 404 -2 190 0 365 3 389 12 84 90 125 168 90z"/>
</g>
</symbol><symbol id="faq-arror" viewBox="0 0 23 14">
<path d="M10.2836 12.4708C10.8694 13.0566 11.8191 13.0566 12.4049 12.4708L21.9508 2.92486C22.5366 2.33908 22.5366 1.38933 21.9508 0.803544C21.3651 0.217757 20.4153 0.217757 19.8295 0.803544L11.3442 9.28883L2.85896 0.803544C2.27317 0.217757 1.32342 0.217757 0.737637 0.803544C0.15185 1.38933 0.15185 2.33908 0.737637 2.92486L10.2836 12.4708ZM9.84424 10.3899V11.4101H12.8442V10.3899H9.84424Z" fill="#7DDB6E"/>
</symbol><symbol id="fb" viewBox="0 0 34 34">
<path d="M29.7498 0H4.2498C1.90624 0 0 1.90649 0 4.24996V29.7497C0 32.0934 1.90631 33.9999 4.2498 33.9999H29.7498C32.0937 33.9999 34 32.0934 34 29.7497V4.25004C34.0001 1.90649 32.0938 0 29.7498 0Z" fill="#1B80E4"/>
<path d="M28.6875 17.0001H23.375V12.75C23.375 11.5769 24.3272 11.6877 25.4999 11.6877H27.6252V6.375H23.375C19.8539 6.375 17.0002 9.22873 17.0002 12.75V17.0001H12.7502V22.3126H17.0002V34.0001H23.375V22.3126H26.5625L28.6875 17.0001Z" fill="#FCFCFC"/>
</symbol><symbol id="filter-icon-test" viewBox="0 0 23 23">
<path d="M3.66286 0.0686001C3.38203 0.145007 3.00092 0.437152 2.85048 0.688845C2.76523 0.837165 2.74015 0.967506 2.72511 1.39898C2.71508 1.69113 2.69502 1.92934 2.67998 1.92934C2.66995 1.92934 2.35402 1.81697 1.98795 1.68214C1.61686 1.5473 1.26584 1.43494 1.21067 1.43494C0.964954 1.43494 0.71422 1.64618 0.709205 1.84843C0.709205 2.15856 0.824543 2.23047 1.92276 2.63048C2.19355 2.72487 2.4142 2.81925 2.4142 2.83274C2.4142 2.84622 1.89267 3.15185 1.25581 3.50692C0.618941 3.86198 0.0773549 4.19008 0.0522814 4.23054C-0.0279535 4.36088 -0.0129095 4.59909 0.0773549 4.72943C0.172634 4.85528 0.418354 4.92719 0.618941 4.87775C0.684132 4.86426 1.17056 4.60808 1.70713 4.31144C2.23868 4.0103 2.68499 3.77659 2.69502 3.78558C2.71007 3.79906 2.43927 4.32942 2.09326 4.96764C1.42631 6.21262 1.25581 6.61713 1.12041 7.25535C1.04519 7.62391 1.03516 8.18123 1.03516 13.5252V19.3906L1.15551 19.7232C1.41126 20.4108 1.95285 20.9592 2.69001 21.2783C3.18646 21.494 3.52746 21.5704 3.96374 21.5704C4.20946 21.5704 4.27465 21.5525 4.38497 21.4581C4.55547 21.3053 4.58556 21.1569 4.50031 20.9637C4.41506 20.7839 4.18438 20.6715 3.90356 20.6715C3.67288 20.6715 3.23661 20.5502 2.98086 20.4153C2.66995 20.2535 2.28883 19.858 2.15344 19.5569L2.0381 19.3007V13.5028C2.0381 8.73855 2.04813 7.64638 2.1083 7.39019C2.2086 6.94074 2.40918 6.43735 2.74015 5.80362L3.03101 5.25529H6.09999H9.16898L9.49995 5.87553C10.0817 6.9677 10.187 7.44412 10.187 9.04418C10.187 10.1588 10.212 10.2667 10.4628 10.3701C10.6684 10.4555 10.8238 10.433 10.9993 10.2937L11.1648 10.1633V8.8644C11.1598 7.02613 11.0896 6.76096 10.1268 4.98562C9.30939 3.47096 9.09878 3.02151 9.174 2.92712C9.2091 2.88667 9.29435 2.74734 9.35954 2.62599C9.47488 2.41475 9.48491 2.35632 9.48491 1.68214C9.48491 1.02144 9.47488 0.945034 9.36455 0.738285C9.21411 0.441646 8.91825 0.194447 8.59229 0.0865782C8.34156 0.00118215 8.20115 -0.00331238 6.11002 0.00118215C4.34987 0.00118215 3.8484 0.0146657 3.66286 0.0686001ZM8.35159 0.989979C8.48197 1.07987 8.48197 1.08886 8.48197 1.68214C8.48197 2.55408 8.72769 2.47317 6.05988 2.45969L3.90858 2.44621L3.8133 2.33834C3.73306 2.24845 3.71802 2.15856 3.71802 1.65966C3.71802 0.819187 3.48233 0.895594 6.09999 0.895594C8.16604 0.895594 8.22121 0.900088 8.35159 0.989979ZM8.42179 3.81704C8.53713 4.06424 8.63241 4.28447 8.63241 4.31144C8.63241 4.3429 7.81502 4.35638 6.09999 4.35638C4.70591 4.35638 3.56758 4.3384 3.56758 4.32043C3.56758 4.28447 3.94869 3.47995 3.99884 3.40354C4.01388 3.38556 4.96667 3.36759 6.11504 3.36759H8.20616L8.42179 3.81704Z" fill="#6D6D6D"/>
<path d="M15.327 2.92262C13.0554 3.1069 11.6212 3.50691 11.2451 4.05974C10.9141 4.54065 11.1749 5.04404 11.9371 5.39012C12.7244 5.74519 14.304 6.00138 16.0391 6.05531C18.2205 6.12722 20.3066 5.94744 21.47 5.59237C21.6706 5.52945 21.8461 5.48001 21.8561 5.48001C21.8662 5.48001 21.8712 5.68227 21.8712 5.93396V6.38341L21.5553 6.51825C19.9706 7.17894 15.5226 7.3003 13.1456 6.73848C12.6542 6.62162 12.5288 6.62612 12.3533 6.76095C12.1728 6.89579 12.1277 7.07107 12.2179 7.26434C12.3032 7.44412 12.4536 7.51154 13.0203 7.63289C15.2418 8.09583 18.5013 8.1183 20.7329 7.68233C20.9836 7.63289 21.2143 7.59244 21.2444 7.59244C21.2845 7.59244 21.2042 8.11381 21.0137 9.15204C20.8532 10.015 20.7178 10.7925 20.7178 10.8869C20.7178 11.0173 20.7529 11.0937 20.8632 11.1926C21.0638 11.3678 21.3095 11.3723 21.5202 11.1971C21.6706 11.0757 21.6706 11.0667 22.0266 9.12058L22.3877 7.16546L22.5732 6.98568C22.6786 6.8868 22.7889 6.76095 22.819 6.70702C22.9092 6.54971 22.8942 4.29795 22.8039 4.13615C22.488 3.59231 21.3246 3.20128 19.3638 2.98555C18.6167 2.90015 16.0592 2.8597 15.327 2.92262ZM19.3388 3.87996C20.4069 4.00581 21.4449 4.24402 21.7408 4.42829C21.8261 4.47773 21.816 4.49121 21.6305 4.57661C20.2514 5.20584 16.0893 5.38113 13.5468 4.9137C13.0453 4.81932 12.4085 4.63054 12.2781 4.53167C12.1678 4.45076 12.1678 4.45076 12.4536 4.3384C13.0153 4.11367 14.1235 3.91591 15.327 3.81703C16.0542 3.75861 18.6768 3.79906 19.3388 3.87996Z" fill="#6D6D6D"/>
<path d="M7.8853 6.14975C7.68973 6.31605 7.68472 6.46886 7.85521 6.91382C8.07085 7.46215 8.13102 7.98801 8.13102 9.29143C8.13102 10.5454 8.15108 10.6757 8.37674 10.7836C8.51715 10.851 8.79296 10.8375 8.91331 10.7611C9.13396 10.6263 9.149 10.5094 9.11892 9.04423C9.08883 7.56553 9.05874 7.32282 8.79798 6.62617C8.63751 6.1947 8.47202 6.01941 8.21627 6.01941C8.09091 6.01941 7.99563 6.05986 7.8853 6.14975Z" fill="#6D6D6D"/>
<path d="M12.7896 11.3274C11.1648 11.3903 9.38462 11.651 8.16606 11.9971C6.71681 12.4106 5.90945 12.8825 5.56343 13.5162L5.39795 13.8174V17.1658V20.5142L5.5183 20.7389C5.66874 21.0131 6.2003 21.4985 6.58643 21.6963C8.76782 22.8469 13.617 23.3143 17.7842 22.7795C20.5273 22.4289 22.3927 21.6783 22.8892 20.7255L22.9995 20.5142V17.1433C22.9995 13.3724 23.0296 13.6735 22.6284 13.2196C22.2874 12.8331 21.475 12.3791 20.6677 12.1274C20.2615 12.0016 20.111 12.0285 19.8653 12.2667C19.6296 12.496 19.2435 12.6488 18.6919 12.7387C17.8594 12.8645 16.9568 12.7971 16.3601 12.5589C15.9438 12.3881 15.9137 12.3476 16.1143 12.1993C16.4403 11.9521 16.4904 11.7229 16.2598 11.4937C16.1193 11.3544 16.1043 11.3499 15.5477 11.3184C14.8556 11.278 13.968 11.278 12.7896 11.3274ZM14.9509 12.3432C14.9559 13.0578 16.0491 13.6151 17.5836 13.6915C18.5765 13.7365 19.5695 13.5522 20.1612 13.2106L20.4771 13.0263L20.6877 13.0982C21.2143 13.287 21.821 13.6735 21.9414 13.9028C22.0216 14.0556 22.0216 14.0735 21.9414 14.2219C21.8662 14.3657 21.4399 14.7342 21.4048 14.6893C21.3948 14.6803 21.3647 14.6174 21.3296 14.55C21.2494 14.3792 20.9986 14.2758 20.7529 14.3028C20.3618 14.3522 20.1512 14.7073 20.3618 14.9635C20.4621 15.0893 20.4621 15.0983 20.3768 15.1388C20.2013 15.2241 19.2636 15.4534 18.6267 15.5702C17.1624 15.8354 15.0412 15.9792 13.4616 15.9208L12.6993 15.8938L12.7746 15.7635C12.8648 15.6107 12.8748 15.2646 12.7996 15.0893C12.6442 14.7253 12.0875 14.4061 11.3103 14.2398C10.6884 14.105 9.63536 14.105 9.05867 14.2398C8.50705 14.3702 8.08081 14.5679 7.83509 14.8062L7.62948 15.0084L7.26843 14.8286C6.782 14.5814 6.55634 14.4106 6.45605 14.2219C6.37581 14.0735 6.37581 14.0556 6.45605 13.9073C6.50118 13.8174 6.63156 13.678 6.7469 13.5971C7.01769 13.3994 7.4289 13.1881 7.4289 13.2466C7.4289 13.3454 7.68465 13.5612 7.83007 13.5836C8.19614 13.6511 8.53213 13.4578 8.53213 13.1791C8.53213 13.0937 8.51207 12.9859 8.48198 12.9409C8.42181 12.842 8.46192 12.8286 9.25926 12.6533C10.6533 12.3476 12.1979 12.2038 14.2388 12.1858L14.9509 12.1769V12.3432ZM11.1398 15.1208C11.3153 15.1612 11.546 15.2331 11.6563 15.2826C11.887 15.3904 11.8569 15.4489 11.5008 15.5837C11.1348 15.723 10.864 15.741 10.3374 15.6646C9.70556 15.5702 8.73272 15.359 8.73272 15.3185C8.73272 15.2601 9.28433 15.0983 9.62533 15.0534C10.0716 14.9994 10.7436 15.0309 11.1398 15.1208ZM6.99262 15.7051C7.85515 16.0826 8.82799 16.3388 10.1318 16.541C12.93 16.968 16.5406 16.9096 19.088 16.3972C20.096 16.195 21.129 15.8759 21.6857 15.5927C21.8361 15.5208 21.9715 15.4579 21.9865 15.4579C22.0467 15.4579 22.0266 20.2041 21.9665 20.3434C21.7258 20.9142 20.1461 21.521 18.0701 21.8356C16.7662 22.0334 16.014 22.0828 14.2238 22.0828C12.1277 22.0828 10.9643 21.9839 9.4448 21.6783C7.90028 21.3682 6.65664 20.8288 6.441 20.3704C6.39086 20.2535 6.37581 19.7367 6.37581 17.84C6.37581 16.5321 6.38584 15.4579 6.40089 15.4579C6.41593 15.4579 6.68171 15.5702 6.99262 15.7051Z" fill="#6D6D6D"/>
<path d="M12.3834 12.6982C12.2129 12.7791 12.1427 12.8915 12.1427 13.0848C12.1427 13.2825 12.253 13.4174 12.4737 13.4803C12.8648 13.5972 13.2209 13.4039 13.2209 13.0668C13.2209 12.7162 12.7595 12.514 12.3834 12.6982Z" fill="#6D6D6D"/>
<path d="M15.0964 14.5545C14.6751 14.9321 15.1916 15.4894 15.7433 15.2467C15.994 15.1388 16.0843 14.9635 16.009 14.7388C15.9388 14.5231 15.7683 14.4242 15.4775 14.4242C15.2869 14.4242 15.2167 14.4466 15.0964 14.5545Z" fill="#6D6D6D"/>
</symbol><symbol id="footer-arror" viewBox="0 0 12 7">
<path d="M5.46967 6.55058C5.76256 6.84348 6.23744 6.84348 6.53033 6.55058L11.3033 1.77761C11.5962 1.48472 11.5962 1.00985 11.3033 0.716952C11.0104 0.424059 10.5355 0.424059 10.2426 0.716952L6 4.95959L1.75736 0.716952C1.46447 0.424059 0.989592 0.424059 0.696699 0.716952C0.403806 1.00985 0.403806 1.48472 0.696699 1.77761L5.46967 6.55058ZM5.25 5V6.02025H6.75V5H5.25Z" fill="black"/>
</symbol><symbol id="hamburger" viewBox="0 0 32 32"><path d="M4,10h24c1.104,0,2-0.896,2-2s-0.896-2-2-2H4C2.896,6,2,6.896,2,8S2.896,10,4,10z M28,14H4c-1.104,0-2,0.896-2,2  s0.896,2,2,2h24c1.104,0,2-0.896,2-2S29.104,14,28,14z M28,22H4c-1.104,0-2,0.896-2,2s0.896,2,2,2h24c1.104,0,2-0.896,2-2  S29.104,22,28,22z"/></symbol><symbol id="inst" viewBox="0 0 34 34">
<path d="M5.95 34H28.05C31.3361 34 34 31.3361 34 28.05V5.95C34 2.66391 31.3361 0 28.05 0H5.95C2.66391 0 0 2.66391 0 5.95V28.05C0 31.3361 2.66391 34 5.95 34Z" fill="url(#paint0_radial_428_3447)"/>
<path d="M23.375 29.75H10.625C8.93425 29.75 7.31274 29.0784 6.11719 27.8828C4.92165 26.6873 4.25 25.0658 4.25 23.375V10.625C4.25 8.93425 4.92165 7.31274 6.11719 6.11719C7.31274 4.92165 8.93425 4.25 10.625 4.25H23.375C25.0658 4.25 26.6873 4.92165 27.8828 6.11719C29.0784 7.31274 29.75 8.93425 29.75 10.625V23.375C29.75 25.0658 29.0784 26.6873 27.8828 27.8828C26.6873 29.0784 25.0658 29.75 23.375 29.75ZM10.625 6.8C9.61098 6.80141 8.63889 7.20485 7.92187 7.92187C7.20485 8.63889 6.80141 9.61098 6.8 10.625V23.375C6.80141 24.389 7.20485 25.3611 7.92187 26.0781C8.63889 26.7952 9.61098 27.1986 10.625 27.2H23.375C24.389 27.1986 25.3611 26.7952 26.0781 26.0781C26.7952 25.3611 27.1986 24.389 27.2 23.375V10.625C27.1986 9.61098 26.7952 8.63889 26.0781 7.92187C25.3611 7.20485 24.389 6.80141 23.375 6.8H10.625Z" fill="white"/>
<path d="M16.9999 24.225C15.5709 24.225 14.1741 23.8013 12.9859 23.0074C11.7978 22.2135 10.8717 21.0851 10.3249 19.7649C9.77803 18.4447 9.63495 16.992 9.91373 15.5905C10.1925 14.189 10.8806 12.9016 11.8911 11.8912C12.9015 10.8807 14.1889 10.1926 15.5904 9.91385C16.9919 9.63508 18.4446 9.77815 19.7648 10.325C21.085 10.8718 22.2134 11.7979 23.0073 12.986C23.8012 14.1742 24.2249 15.5711 24.2249 17C24.2235 18.9158 23.4618 20.7527 22.1072 22.1073C20.7526 23.462 18.9157 24.2236 16.9999 24.225ZM16.9999 12.325C16.0753 12.325 15.1714 12.5992 14.4026 13.1129C13.6338 13.6266 13.0346 14.3567 12.6808 15.211C12.3269 16.0652 12.2343 17.0052 12.4147 17.9121C12.5951 18.8189 13.0404 19.6519 13.6942 20.3058C14.348 20.9596 15.181 21.4048 16.0879 21.5852C16.9947 21.7656 17.9347 21.673 18.789 21.3192C19.6432 20.9653 20.3733 20.3661 20.887 19.5973C21.4007 18.8285 21.6749 17.9247 21.6749 17C21.6735 15.7606 21.1805 14.5723 20.3041 13.6959C19.4276 12.8194 18.2394 12.3264 16.9999 12.325Z" fill="white"/>
<path d="M24.2249 11.475C24.9291 11.475 25.5 10.9042 25.5 10.2C25.5 9.49589 24.9291 8.92505 24.2249 8.92505C23.5208 8.92505 22.95 9.49589 22.95 10.2C22.95 10.9042 23.5208 11.475 24.2249 11.475Z" fill="white"/>

</symbol><symbol id="korzinaAdd" viewBox="0 0 24 24"><path d="M16.812 11c-.319 0-.633-.152-.827-.436l-3.961-5.798-4.01 5.802c-.313.454-.937.566-1.391.254-.454-.314-.568-.937-.254-1.391l4.837-7C11.393 2.161 11.7 2 12.028 2c.001 0 .002 0 .003 0 .329.001.637.164.823.436l4.782 7c.312.456.194 1.078-.262 1.39C17.202 10.943 17.006 11 16.812 11zM24 20h-4v4h-2v-4h-4v-2h4v-4h2v4h4V20z"/><path d="M12,19H5.524l-2.21-8h17.372l-0.276,1h2.075l0.479-1.734c0.082-0.301,0.019-0.623-0.169-0.871 C22.605,9.146,22.312,9,21.999,9H2.001C1.688,9,1.395,9.146,1.205,9.395c-0.188,0.248-0.251,0.57-0.169,0.871l2.56,9.266 C3.835,20.396,4.628,21,5.524,21H12V19z"/><path d="M14,16h2v-2c0-1.105,0.895-2,2-2h3.4l0.6-2H2l3,10h7v-2C12,16.895,12.895,16,14,16z" opacity=".3"/></symbol><symbol id="login" viewBox="0 0 512.000000 512.000000" preserveAspectRatio="xMidYMid meet">

<g transform="translate(0.000000,512.000000) scale(0.100000,-0.100000)" fill="#000000" stroke="none">
<path d="M1252 5105 c-212 -46 -388 -217 -442 -430 -19 -73 -20 -111 -20 -602
l0 -523 195 0 195 0 0 508 c0 469 2 510 19 547 23 51 79 101 128 114 51 15
2803 15 2854 1 57 -16 102 -51 127 -100 l22 -44 0 -2016 0 -2016 -22 -44 c-25
-49 -70 -84 -127 -100 -51 -14 -2803 -14 -2854 1 -49 13 -105 63 -128 114 -17
37 -19 78 -19 548 l0 507 -195 0 -195 0 0 -523 c0 -491 1 -529 20 -602 55
-215 231 -384 446 -430 104 -22 2895 -22 2999 0 216 45 393 215 452 435 17 61
18 188 18 2110 0 1922 -1 2049 -18 2110 -59 220 -236 390 -452 435 -101 21
-2906 21 -3003 0z"/>
<path d="M1661 3833 c-19 -10 -44 -31 -55 -46 -20 -27 -21 -43 -24 -333 l-3
-304 -612 0 c-574 0 -615 -2 -652 -19 -48 -22 -79 -54 -100 -103 -23 -56 -23
-880 0 -936 21 -49 52 -81 100 -103 37 -17 78 -19 653 -19 l612 0 0 -282 c0
-254 2 -287 19 -324 25 -56 67 -84 125 -84 l47 0 734 636 c404 350 735 640
735 644 0 4 -331 294 -736 645 -803 695 -767 668 -843 628z"/>
</g>
</symbol><symbol id="logo" viewBox="0 0 200 85">
<path d="M80.0767 0.0915594C79.788 0.161233 79.4118 0.248326 79.2368 0.283163C78.5544 0.43122 77.767 1.13667 77.2858 2.04243C77.1545 2.30371 76.9183 2.68692 76.7783 2.89594C76.6383 3.11367 76.4459 3.46204 76.3584 3.67977C76.1921 4.09782 75.5709 5.29099 74.976 6.34481C74.7835 6.67576 74.2411 7.65119 73.7599 8.5047C72.3688 11.013 72.3076 11.1088 71.8964 11.7445C71.6776 12.0842 71.3452 12.6503 71.1614 13.0074C70.8552 13.5909 70.199 14.6621 69.2891 16.0469C69.1229 16.3082 68.8692 16.7349 68.7204 16.9962C68.318 17.7539 67.6793 18.7381 67.3293 19.1561C67.1456 19.3739 66.8919 19.7309 66.7607 19.9574C66.6382 20.1838 66.0695 20.9676 65.5183 21.6992C64.9584 22.4308 64.2759 23.354 64.0047 23.7459C63.5498 24.3904 62.9636 25.122 62.0887 26.1061C61.9137 26.3064 61.59 26.7506 61.3538 27.099C61.1263 27.4473 60.6013 28.1005 60.1814 28.5447C59.7702 28.9889 59.114 29.764 58.729 30.2604C58.3441 30.7569 57.7929 31.4188 57.4954 31.7323C57.198 32.0458 56.8305 32.4726 56.6818 32.6903C56.5243 32.908 56.2531 33.239 56.0781 33.4306C55.8943 33.6222 55.5706 33.9967 55.3607 34.258C54.932 34.7718 54.512 35.2508 53.8208 35.9998C53.5759 36.2611 53.2434 36.6356 53.0772 36.8185C52.9109 37.0101 52.5785 37.3585 52.3335 37.6023C52.0798 37.8462 51.6948 38.2816 51.4586 38.5691C50.9161 39.2571 49.4901 40.7638 46.9266 43.3417C45.7805 44.5001 44.6343 45.7106 44.3719 46.0329C44.1181 46.3464 43.6807 46.7993 43.4007 47.0345C43.1207 47.2609 42.4383 47.9054 41.8784 48.4628C41.3184 49.0202 40.601 49.6908 40.2948 49.9433C39.9798 50.2046 39.5599 50.614 39.3674 50.8578C39.1749 51.1017 38.7725 51.511 38.4663 51.7723C38.1688 52.0336 37.4164 52.7129 36.8127 53.2877C35.5878 54.4373 34.4242 55.4998 33.8818 55.9527C33.6105 56.1792 32.5082 57.1546 31.7732 57.8165C30.1459 59.2884 28.2561 60.9083 27.7399 61.2828C27.53 61.4309 27.3637 61.5963 27.3637 61.666C27.3637 61.727 27.2762 61.7792 27.1625 61.7792C27.0488 61.7792 26.8475 61.9012 26.6988 62.0492C26.5588 62.1973 26.2351 62.4585 25.9814 62.624C25.7364 62.7895 25.5002 62.9724 25.4564 63.0334C25.4214 63.0856 25.089 63.3556 24.7215 63.6343C24.354 63.913 24.0216 64.1743 23.9953 64.2178C23.9691 64.2614 23.6366 64.5226 23.2692 64.7926C22.9017 65.0713 22.4205 65.4545 22.2018 65.6548C21.9831 65.8552 21.4756 66.2471 21.0644 66.5258C20.6532 66.8045 20.1458 67.1964 19.927 67.388C19.7083 67.5883 19.2096 67.9715 18.8334 68.2502C18.4484 68.5202 17.7048 69.0602 17.1798 69.4521C16.1912 70.1749 15.1501 70.7933 15.0888 70.6801C15.0626 70.6452 15.0188 70.4188 14.9926 70.1837C14.8351 69.0515 14.4764 68.3808 13.4965 67.3793C13.059 66.9438 12.6041 66.5432 12.4903 66.4996C12.2104 66.3951 11.178 65.62 11.1167 65.4719C11.0205 65.2281 10.1456 64.7404 9.47192 64.5575C8.13332 64.2004 6.60224 64.4007 5.60485 65.0626C4.76494 65.62 2.99763 67.6406 2.31521 68.8424C2.20147 69.0515 1.9565 69.4608 1.78152 69.7482C1.60653 70.0356 1.43155 70.3666 1.40531 70.4885C1.37906 70.6104 1.27407 70.863 1.17783 71.0546C0.976604 71.4639 0.442912 73.0403 0.320426 73.6151C0.267931 73.8328 0.18919 74.1725 0.136696 74.3641C-0.00328901 74.8867 -0.0557833 77.7868 0.0754524 77.9436C0.127947 78.0133 0.206688 78.2136 0.250433 78.3965C0.285429 78.5707 0.364171 78.9016 0.407916 79.1281C0.521654 79.6419 1.09909 80.7915 1.48405 81.2618C1.64153 81.4534 1.8865 81.7583 2.02649 81.9412C2.3502 82.3592 3.19886 82.9776 3.91628 83.3259C4.44997 83.5872 4.6862 83.6656 5.53486 83.892C6.28727 84.0923 9.28819 84.0488 10.2156 83.8224C10.4343 83.7701 10.7843 83.6917 11.003 83.6395C11.2217 83.5959 11.5892 83.5175 11.8254 83.474C12.0616 83.4217 12.4553 83.2824 12.7003 83.1692C12.9453 83.0559 13.269 82.934 13.409 82.8992C13.5577 82.873 13.9164 82.725 14.2227 82.5856C14.5201 82.4463 14.8001 82.3331 14.8438 82.3331C14.9401 82.3331 15.92 81.8279 16.0337 81.7147C16.0775 81.6712 16.1649 81.6363 16.2349 81.6363C16.2962 81.6363 16.5761 81.4883 16.8474 81.3054C17.1186 81.1225 17.5823 80.8438 17.871 80.687C18.1597 80.5303 18.5534 80.2864 18.7372 80.147C18.9296 80.0077 19.1396 79.8945 19.2009 79.8945C19.2709 79.8945 19.5421 79.729 19.8045 79.52C20.067 79.3197 20.417 79.0671 20.5657 78.9539C20.7232 78.8407 20.9419 78.6578 21.0644 78.5445C21.1869 78.4313 21.4231 78.2746 21.5894 78.2049C21.7556 78.1352 22.0793 77.9262 22.3155 77.7433C22.9892 77.2033 25.4652 75.3395 26.8738 74.2944C27.3112 73.9722 27.8449 73.5628 28.0636 73.38C28.2736 73.2058 28.6323 72.9445 28.8511 72.8051C29.2448 72.5526 29.7347 72.1519 30.7146 71.2636C31.0121 71.0023 31.4145 70.6888 31.607 70.5669C31.7995 70.4536 32.1582 70.1837 32.4119 69.9659C32.6569 69.7482 33.1643 69.3214 33.5405 69.0079C33.908 68.6944 34.3805 68.2937 34.5817 68.1196C34.7829 67.9367 34.9754 67.7886 35.0104 67.7886C35.1416 67.7886 35.6753 67.3619 36.4715 66.6129C37.4951 65.6636 37.9588 65.2629 38.0376 65.2629C38.0638 65.2629 38.1688 65.1758 38.2738 65.0626C38.5712 64.7317 40.5485 62.9898 41.0472 62.6153C41.5372 62.2495 41.8871 61.936 43.9432 60.0374C44.5906 59.4364 45.693 58.4175 46.3929 57.773C47.0928 57.1285 48.8339 55.4476 50.2775 54.0454C51.7123 52.6432 53.0334 51.3978 53.2084 51.2759C53.3834 51.1539 53.5234 51.0233 53.5234 50.9797C53.5234 50.823 57.3292 46.9648 57.4517 46.9909C57.5392 47.0083 57.5829 47.1651 57.5917 47.5396C57.6354 48.6457 58.2303 50.283 58.9828 51.3717C59.429 52.0161 60.3739 52.8609 60.96 53.1309C61.2838 53.2877 62.1674 53.5577 62.7099 53.6796C63.2435 53.7928 64.7659 53.758 65.4658 53.6012C65.7108 53.5577 66.0432 53.488 66.2095 53.4619C66.3757 53.427 66.5944 53.3748 66.6907 53.3312C66.7869 53.2964 67.2506 53.0961 67.7318 52.8958C68.2043 52.7042 68.7642 52.4255 68.9742 52.2861C69.1754 52.1381 69.3679 52.0249 69.4029 52.0249C69.4991 52.0249 70.5228 51.3107 70.899 50.9885C71.1002 50.8143 71.5551 50.4398 71.9051 50.1524C72.6663 49.534 73.5587 48.6631 74.0224 48.0796C74.4073 47.6093 75.2735 46.9387 75.396 47.017C75.4485 47.0432 75.4835 47.1738 75.4835 47.2957C75.4835 47.4177 75.5272 47.6789 75.5797 47.8792C75.6322 48.0709 75.7109 48.3931 75.7634 48.5847C75.9122 49.1682 76.0259 49.4208 76.4896 50.222C77.0058 51.1191 77.207 51.3455 77.8982 51.8071C78.4756 52.199 78.7643 52.3471 79.4643 52.591C80.1205 52.8348 82.5177 52.9916 82.8764 52.8174C82.9726 52.7739 83.1739 52.7129 83.3139 52.6955C83.4626 52.6693 83.7251 52.6084 83.9088 52.5561C84.705 52.321 84.9062 52.2687 85.1074 52.2339C85.4836 52.1555 86.7872 51.5633 87.0409 51.3542C87.1197 51.2846 87.3559 51.1626 87.5659 51.0843C87.7759 51.0059 88.3096 50.701 88.7383 50.4136C89.1757 50.1262 89.6394 49.8301 89.7881 49.7604C89.9281 49.6908 90.3481 49.3424 90.7155 48.994C91.083 48.6544 91.398 48.367 91.4242 48.367C91.4417 48.367 91.7742 48.6718 92.1591 49.0376C93.1828 50.0304 93.7077 50.4224 94.5039 50.7969C95.3 51.1626 95.7637 51.3107 97.0499 51.5807C97.7585 51.7287 99.6133 51.781 100.287 51.6765C100.628 51.6242 101.197 51.5458 101.556 51.5023C101.914 51.4588 102.413 51.3891 102.649 51.3368C102.894 51.2933 103.262 51.2149 103.48 51.1713C103.699 51.1278 104.207 50.9797 104.618 50.8491C105.029 50.7272 105.519 50.5704 105.711 50.5182C105.904 50.4659 106.376 50.3004 106.761 50.1437C107.452 49.8737 107.627 49.7953 109.281 49.0289C109.762 48.8111 110.191 48.6282 110.243 48.6282C110.305 48.6282 110.445 48.5499 110.567 48.4541C110.69 48.3583 110.838 48.2799 110.9 48.2799C110.961 48.2799 111.293 48.097 111.643 47.8618C111.993 47.6354 112.396 47.3915 112.536 47.3219C112.684 47.2522 113.192 46.7993 113.682 46.3203C114.565 45.4407 114.697 45.2491 115.23 43.9688C115.922 42.3053 116.097 41.8612 116.14 41.6783C116.202 41.4344 116.543 41.3386 116.91 41.4779C117.076 41.5302 117.768 41.5737 118.651 41.5737H120.121L120.077 41.8089C120.042 41.9482 119.981 42.2444 119.929 42.4882C119.876 42.7234 119.806 43.063 119.78 43.2285C119.754 43.394 119.701 43.5769 119.657 43.6291C119.622 43.6727 119.561 44.0385 119.526 44.4217C119.482 44.9529 119.5 45.2316 119.605 45.5539C119.684 45.7803 119.789 46.1461 119.841 46.3638C120.174 47.6093 120.821 48.576 121.915 49.4295C122.807 50.1175 122.816 50.1262 124.303 50.4746C124.802 50.5965 126.228 50.5965 126.797 50.4746C128.59 50.1001 129.124 49.9433 129.745 49.6211C130.139 49.4121 130.165 49.4121 130.489 49.5427C130.795 49.6734 131.486 49.8737 133.043 50.283C133.735 50.4746 134.986 50.5182 135.449 50.3788C135.598 50.3353 135.887 50.2482 136.097 50.1959C136.849 50.0043 137.724 48.9766 139.002 46.7993C139.369 46.1635 139.579 46.0416 139.658 46.4248C139.789 47.0606 139.911 47.3567 140.165 47.7225C140.48 48.1754 141.32 48.7415 141.897 48.8895C142.317 48.994 143.341 49.2901 143.779 49.4208C143.927 49.4643 144.12 49.4992 144.216 49.4992C144.303 49.4992 144.592 49.5776 144.846 49.6734C145.091 49.7692 145.318 49.8475 145.345 49.8475C145.371 49.8388 145.598 49.8737 145.852 49.8998C146.456 49.9869 146.561 49.9782 147.182 49.8563C147.996 49.6821 148.608 49.3424 149.194 48.7502C150.034 47.888 150.918 46.869 151.066 46.5816C151.355 46.0329 152.65 44.5349 152.834 44.5349C152.869 44.5349 152.913 44.7004 152.939 44.9007C153.026 45.6497 153.184 46.1635 153.516 46.8428C154.164 48.1492 155.074 48.785 156.937 49.2379C157.103 49.2814 157.427 49.3598 157.654 49.4208C158.276 49.5688 159.291 49.4382 160.918 48.9766C161.11 48.9244 161.408 48.846 161.574 48.8111C162.195 48.6718 164.715 47.5048 165.327 47.0693C165.467 46.9648 165.607 46.8864 165.642 46.8864C165.677 46.8864 165.879 46.7645 166.097 46.6251C166.307 46.4771 166.5 46.3638 166.526 46.3638C166.552 46.3638 166.832 46.599 167.138 46.8777C167.742 47.4264 169.054 48.1492 169.693 48.2886C169.894 48.3321 170.227 48.4105 170.437 48.4715C171.495 48.7589 173.788 48.4366 175.205 47.7922C175.459 47.6789 175.704 47.5831 175.756 47.5831C175.992 47.5831 177.506 46.808 177.979 46.4509C178.267 46.2332 178.731 45.9371 179.011 45.789C179.3 45.6497 179.693 45.3884 179.903 45.2055C180.113 45.0313 180.332 44.8833 180.402 44.8833C180.472 44.8833 180.664 45.0923 180.831 45.3449C181.408 46.2332 182.021 46.7819 182.922 47.1999C183.56 47.5048 183.797 47.5831 184.015 47.5831C184.129 47.5831 184.243 47.618 184.269 47.6615C184.392 47.8444 186.386 47.9925 186.876 47.8531C187.06 47.8009 187.375 47.7138 187.585 47.6615C188.897 47.3306 191.321 46.1984 192.782 45.2316C193.176 44.9704 193.683 44.6394 193.902 44.5001C194.707 44.0036 196.29 42.6189 196.728 42.0266C197.261 41.3125 197.664 40.5112 197.839 39.8667C197.909 39.588 198.023 39.2919 198.084 39.1874C198.154 39.0829 198.259 38.8478 198.32 38.6561C198.381 38.4645 198.46 38.2642 198.495 38.2207C198.521 38.1684 198.6 37.9594 198.661 37.7417C198.722 37.5239 198.81 37.2714 198.862 37.1843C199.055 36.8272 199.029 35.8779 198.81 35.2247C198.425 34.049 197.673 33.2912 196.658 33.0474C196.395 32.9777 196.072 32.8732 195.949 32.8035C195.748 32.6816 195.695 32.6816 195.45 32.8122C195.302 32.8906 195.092 32.9516 194.995 32.9516C194.89 32.9516 194.724 32.9951 194.628 33.0474C194.409 33.1693 194.217 33.0213 194.365 32.8471C194.409 32.7861 194.602 32.4552 194.777 32.1242C194.952 31.7845 195.153 31.4536 195.223 31.3752C195.293 31.3055 195.345 31.1836 195.345 31.1139C195.345 31.0443 195.503 30.7656 195.695 30.4869C195.888 30.2169 196.045 29.9382 196.045 29.8772C196.045 29.7205 197.095 27.6825 197.62 26.8203C197.865 26.4109 198.224 25.7403 198.416 25.3397C198.609 24.9304 198.801 24.5733 198.854 24.5472C199.055 24.4165 199.606 23.5543 199.711 23.1972C199.772 22.9795 199.86 22.7356 199.912 22.6398C199.956 22.5527 200 22.274 200 22.0215C200.009 21.1418 199.65 20.358 198.897 19.6264C198.25 18.9906 197.778 18.6771 196.579 18.0675C196.08 17.8149 195.468 17.4404 195.214 17.2401C194.943 17.0136 194.593 16.8308 194.33 16.7611C194.094 16.7001 193.762 16.613 193.596 16.5695C193.281 16.4737 192.161 16.5085 191.741 16.6217C191.566 16.6653 191.426 16.6217 191.128 16.4301C190.726 16.1601 190.49 16.0818 189.309 15.8031C188.714 15.6637 188.241 15.6289 186.99 15.6289C186.124 15.6289 185.275 15.6637 185.109 15.7073C184.943 15.7508 184.567 15.8292 184.278 15.8902C183.403 16.0643 183.079 16.1863 181.434 16.944C180.796 17.2401 179.693 17.8759 178.442 18.6858C177.97 18.9906 177.419 19.339 177.217 19.4697C177.007 19.6003 176.596 19.9138 176.307 20.1664C176.01 20.419 175.441 20.9067 175.039 21.2463C174.251 21.917 172.239 23.9375 171.714 24.5907L171.399 24.9826L171.189 24.5472C170.944 24.0159 169.728 22.7705 169.221 22.5179C168.092 21.9518 166.211 21.7689 164.942 22.0911C163.971 22.3437 163.595 22.4831 162.808 22.875C161.985 23.2843 161.977 23.2756 161.749 22.5702C161.679 22.3611 161.522 22.0563 161.382 21.8734C161.25 21.6992 161.154 21.5076 161.18 21.4379C161.207 21.3683 161.408 21.2638 161.627 21.2028C161.845 21.1331 162.178 21.0112 162.37 20.9241C162.554 20.8283 162.746 20.7586 162.79 20.7586C162.843 20.7586 163.009 20.689 163.166 20.5931C163.333 20.5061 163.718 20.3493 164.024 20.2448C164.339 20.1403 164.671 20.0183 164.767 19.9748C164.864 19.9312 165.039 19.879 165.161 19.8529C165.284 19.8354 165.537 19.7658 165.73 19.7135C166.517 19.4871 166.815 19.4348 167.523 19.3477C168.363 19.2519 172.117 19.2345 173.123 19.3216C173.517 19.3564 173.901 19.3477 174.103 19.2868C174.286 19.2345 174.601 19.1474 174.811 19.0864C175.59 18.8687 176.526 17.9368 176.885 17.0136C177.034 16.6391 178.267 14.218 178.381 14.0873C178.425 14.0351 178.538 13.7651 178.635 13.4951C178.731 13.2164 178.967 12.6851 179.16 12.3019C179.352 11.9274 179.51 11.5268 179.51 11.4136C179.51 11.3004 179.553 11.1697 179.615 11.1088C179.956 10.7691 179.737 9.42788 179.203 8.51341C178.976 8.12149 178.433 7.64248 177.97 7.40733C177.427 7.12864 176.342 6.89349 175.922 6.95445C175.704 6.98929 175.293 7.04155 175.004 7.08509C174.356 7.18089 173.648 7.31153 173.123 7.44217C172.904 7.49443 172.537 7.5641 172.292 7.60765C171.539 7.747 170.997 7.85151 170.586 7.95602C170.026 8.09537 169.413 8.20859 168.748 8.30439C168.433 8.34793 168.005 8.42632 167.786 8.47857C167.357 8.58308 166.85 8.6963 166.281 8.81823C165.879 8.90533 165.581 8.99242 165.03 9.20144C164.697 9.32337 164.549 9.36692 163.586 9.61078C163.368 9.66303 162.939 9.8198 162.624 9.95915C162.309 10.0898 161.88 10.264 161.662 10.3336C161.443 10.4033 160.778 10.6646 160.174 10.9085C159.579 11.1523 159.054 11.3526 159.019 11.3526C158.984 11.3526 158.766 11.4658 158.538 11.6139C158.311 11.7533 158.074 11.8752 158.004 11.8752C157.934 11.8752 157.777 11.9536 157.654 12.0407C157.523 12.1278 156.727 12.5545 155.878 12.9813C155.03 13.408 154.216 13.8435 154.076 13.948C153.927 14.0525 153.709 14.1744 153.577 14.218C153.455 14.2702 152.947 14.5751 152.458 14.906C151.959 15.237 151.18 15.7247 150.725 15.9947C149.579 16.674 148.949 17.1878 148.512 17.7975C148.311 18.0849 148.092 18.32 148.022 18.32C147.952 18.32 147.768 18.2242 147.611 18.1023C147.453 17.9804 147.278 17.8846 147.217 17.8846C147.156 17.8846 146.849 17.7278 146.534 17.5449C145.975 17.214 145.765 17.1356 144.986 16.9353C144.54 16.822 143.953 16.8133 143.604 16.9178C143.455 16.9614 143.157 17.0485 142.939 17.1094C142.055 17.3533 141.661 17.7714 140.839 19.3216C139.728 21.4031 139.01 22.6747 138.94 22.6747C138.914 22.6747 138.713 22.544 138.485 22.3785C137.742 21.8386 136.779 21.2289 136.289 20.9938C136.027 20.8631 135.677 20.6802 135.511 20.5844C135.353 20.4799 134.828 20.3145 134.356 20.2012L133.498 20.0009L132.632 20.1925C132.037 20.3232 131.644 20.4712 131.381 20.6541C131.022 20.898 130.349 21.586 129.946 22.1086L129.771 22.335L129.763 21.917C129.736 20.6193 128.651 19.0864 127.47 18.6771C127.024 18.5203 125.817 17.9107 125.397 17.632C125.204 17.5101 124.889 17.3533 124.697 17.3011C124.504 17.2488 124.189 17.153 123.988 17.1007C123.437 16.944 122.203 17.092 121.556 17.4056C121.057 17.6407 120.279 18.4071 119.937 18.9819C119.316 20.0445 119.115 20.3232 118.992 20.3232C118.922 20.3232 118.739 20.2274 118.59 20.1141C118.013 19.6961 117.426 19.4348 116.438 19.1822C115.458 18.9297 115.37 18.921 113.979 18.9645C111.897 19.0255 110.392 19.2606 109.622 19.6613C109.482 19.7309 109.097 19.8703 108.765 19.9574C108.432 20.0532 108.021 20.2099 107.855 20.3145C107.689 20.4103 107.452 20.5409 107.33 20.5844C107.207 20.6367 106.91 20.776 106.656 20.898C106.411 21.0112 106.149 21.107 106.079 21.107C105.956 21.107 104.697 21.9257 102.544 23.3975C102.098 23.7024 101.529 24.1552 101.276 24.3991C101.022 24.643 100.654 24.9565 100.462 25.1045C99.937 25.4878 96.7524 28.7276 96.2099 29.4243C95.9562 29.7553 95.44 30.3562 95.0726 30.7569C94.2852 31.6016 93.8739 32.1939 92.8766 33.9009C91.9404 35.4947 91.6604 36.026 91.2755 36.9404C91.1705 37.1843 90.978 37.4107 90.7505 37.5675C90.3568 37.8375 89.9981 38.1336 89.3944 38.6736C88.7908 39.2222 88.6508 39.1787 88.957 38.5429C89.0532 38.3513 89.132 38.1162 89.132 38.0378C89.132 37.8375 90.698 34.737 91.0655 34.2144C91.2405 33.9706 91.4242 33.6048 91.4855 33.387C91.6079 32.9429 91.8704 32.3855 92.1854 31.8629C92.3079 31.6713 92.5966 31.1401 92.8328 30.6872C93.069 30.2343 93.3315 29.764 93.4102 29.6421C93.489 29.5201 93.6465 29.224 93.7602 28.9889C94.2852 27.8393 94.6876 27.1164 95.265 26.2716C95.405 26.0713 95.5188 25.8797 95.5188 25.8535C95.5188 25.8187 95.6063 25.6706 95.7112 25.5313C95.8075 25.3832 96.0787 24.9129 96.3062 24.4688C96.7086 23.6675 96.8924 23.3627 97.7848 21.9518C98.3447 21.0722 98.3535 21.0547 98.4847 20.7586C98.5372 20.6367 98.6597 20.419 98.7472 20.2796C98.8434 20.1316 98.9221 19.9574 98.9221 19.8877C98.9309 19.818 99.0884 19.5306 99.2809 19.2519C99.4733 18.9819 99.6308 18.7294 99.6308 18.7032C99.6308 18.6771 99.7533 18.4855 99.8933 18.2765C100.042 18.0675 100.156 17.8759 100.156 17.841C100.156 17.8149 100.261 17.632 100.392 17.423C100.523 17.2227 100.672 16.9962 100.724 16.9091C100.768 16.8308 100.943 16.5869 101.101 16.3605C101.249 16.1427 101.381 15.925 101.381 15.8727C101.381 15.6463 102.544 13.678 103.209 12.7809C103.358 12.5893 103.638 12.1016 103.83 11.6923C104.032 11.2917 104.32 10.743 104.487 10.4817C104.653 10.2204 104.793 9.94173 104.793 9.85464C104.793 9.76754 104.871 9.45401 104.976 9.1579C105.169 8.59179 105.151 8.40019 104.819 7.32895C104.644 6.76285 104.04 5.97031 103.472 5.55226C103.218 5.36937 102.824 5.05584 102.605 4.87294C102.387 4.68134 102.011 4.44619 101.766 4.33297C101.311 4.13265 100.969 3.91492 100.147 3.27915C99.2371 2.58241 98.5809 2.35597 97.4436 2.34726C96.7086 2.34726 96.1662 2.45177 95.65 2.68692C95.2213 2.88723 94.2939 3.79299 94.0752 4.21104C93.7777 4.79456 92.5353 6.96316 92.0279 7.78183C91.7392 8.23471 91.2667 9.07951 90.9693 9.64561C90.663 10.2204 90.1031 11.2046 89.7182 11.8229C89.3332 12.45 88.8432 13.2948 88.6245 13.7041C88.1171 14.6796 87.6096 15.5244 86.8397 16.7088C86.621 17.0398 86.306 17.5536 86.1485 17.841C85.9911 18.1284 85.7986 18.442 85.7198 18.5378C85.6411 18.6336 85.4049 19.0081 85.1861 19.3651C84.9762 19.7222 84.6437 20.2361 84.4512 20.4973C84.2587 20.7586 84.04 21.0896 83.97 21.2376C83.9 21.377 83.6551 21.7776 83.4276 22.1173C83.1914 22.4656 83.0076 22.7792 83.0076 22.8227C83.0076 22.875 82.9201 22.9795 82.8239 23.0753C82.6227 23.2495 81.8265 24.2946 81.5553 24.7213C81.3541 25.0436 80.3392 26.3935 79.823 27.0293C79.6043 27.2906 79.2805 27.7173 79.0968 27.9699C78.3881 28.9627 78.1607 29.2414 77.0933 30.4172C76.8483 30.6872 76.4896 31.1226 76.2971 31.3839C76.0959 31.6452 75.6322 32.1939 75.2647 32.6032C74.8885 33.0125 74.4248 33.5787 74.2323 33.8661C73.8474 34.4496 72.2638 36.0869 72.0976 36.0869C71.9838 36.0869 72.6313 34.8067 72.9987 34.3015C73.2262 33.988 74.0836 32.3594 74.0836 32.2374C74.0836 32.1852 74.2936 31.7933 74.5473 31.3578C74.8098 30.9136 75.1685 30.2866 75.3522 29.9556C75.5272 29.6246 75.7984 29.1718 75.9559 28.954C76.1046 28.7363 76.2709 28.4576 76.3234 28.3357C76.3759 28.2137 76.4896 27.9612 76.5771 27.7696C76.7258 27.4125 78.1519 24.9129 78.6681 24.0943C78.8256 23.8417 79.0093 23.4672 79.0793 23.2669C79.1406 23.0579 79.683 22.0911 80.2779 21.107C80.8729 20.1228 81.4416 19.13 81.529 18.9036C81.7303 18.3984 82.3252 17.3446 82.8677 16.5521C83.0864 16.2211 83.2701 15.9076 83.2701 15.8466C83.2701 15.7856 83.4188 15.5069 83.6026 15.2195C83.7863 14.9408 83.9875 14.5663 84.0575 14.4009C84.1713 14.1222 84.6875 13.1903 85.4399 11.9187C85.6061 11.6313 85.9386 11.0217 86.1748 10.5688C86.411 10.1159 86.656 9.68916 86.726 9.61078C86.7872 9.5411 86.8835 9.38434 86.9272 9.26241C86.971 9.14048 87.2159 8.71372 87.4609 8.3131C87.7059 7.91247 87.9071 7.47701 87.9071 7.35508C87.9071 7.22444 87.9771 7.03284 88.0558 6.91962C88.3621 6.47544 88.1433 4.84681 87.6796 4.14136C87.3647 3.66235 86.796 3.1398 86.2185 2.79143C85.8861 2.59112 85.5099 2.35597 85.3786 2.27758C85.2561 2.1992 84.9149 2.0076 84.6175 1.85083C84.32 1.70277 83.7251 1.31086 83.2876 0.988613C82.4914 0.396383 82.3865 0.352837 81.2141 0.117687C81.0216 0.0741409 80.8029 0.0218853 80.7329 0.00446681C80.6629 -0.0129517 80.3654 0.0218853 80.0767 0.0915594ZM81.6165 3.57526C82.054 3.85396 82.6314 4.21975 82.9026 4.39393C83.1739 4.56812 83.6988 4.88165 84.0575 5.08196C85.1861 5.73516 85.3436 6.04869 84.8449 6.70189C84.705 6.88478 84.5825 7.07638 84.5825 7.11122C84.5825 7.15477 84.3812 7.52056 84.1363 7.9386C83.8913 8.34793 83.4713 9.10564 83.2001 9.61078C82.9376 10.1159 82.6489 10.6211 82.5702 10.743C82.4914 10.8649 82.2115 11.3439 81.949 11.8142C81.6865 12.2932 81.4328 12.7374 81.3891 12.8158C80.9604 13.5212 80.6366 14.096 80.4792 14.4096C80.3829 14.6186 80.2254 14.906 80.1467 15.0541C80.0592 15.1934 79.6917 15.8466 79.3418 16.4911C78.9831 17.1356 78.4844 18.0152 78.2394 18.4507C77.9857 18.8774 77.697 19.3913 77.592 19.5829C77.487 19.7745 77.2683 20.1664 77.102 20.4538C76.9358 20.7412 76.6996 21.1854 76.5683 21.4379C76.4459 21.6992 76.1834 22.1521 75.9997 22.4569C75.6759 22.9882 75.1772 23.894 74.8885 24.4601C74.8185 24.5994 74.5648 25.0436 74.3286 25.4442C74.0924 25.8448 73.7686 26.4284 73.6024 26.7506C73.4362 27.0728 73.165 27.5606 73.0162 27.8305C72.8587 28.1005 72.465 28.806 72.1326 29.3982C71.8089 29.9904 71.4414 30.6436 71.3102 30.8614C70.5228 32.1939 68.7379 35.7734 68.3092 36.8707C68.213 37.132 68.0555 37.5065 67.968 37.6981C67.8805 37.8897 67.7756 38.1423 67.7406 38.2642C67.7056 38.3862 67.6268 38.5952 67.5656 38.7432C67.2944 39.4051 67.2594 39.5009 67.2594 39.6925C67.2594 39.8058 67.1806 40.1193 67.0844 40.4067C66.8307 41.147 66.6207 42.9934 66.7432 43.4201C66.8307 43.7598 67.2244 44.0994 67.5218 44.0994C67.8018 44.0994 69.0967 43.3069 70.0328 42.5666C71.3627 41.5041 74.4511 38.36 76.4459 36.0347C76.9708 35.425 77.9069 34.3451 78.3531 33.8399C78.6156 33.5351 78.9743 33.1084 79.1493 32.8819C79.3155 32.6555 79.5168 32.4116 79.5868 32.3419C79.788 32.1503 80.2342 31.5929 81.3453 30.1211C81.8878 29.3982 82.4477 28.6753 82.5877 28.5099C82.7189 28.3444 83.0601 27.8915 83.3401 27.5083C83.6201 27.1251 84.2238 26.2977 84.6875 25.6794C85.1424 25.0523 85.7023 24.251 85.9386 23.894C86.7172 22.6834 86.8135 22.544 87.1372 22.0999C87.3209 21.856 87.4696 21.6296 87.4696 21.5947C87.4696 21.5425 87.7671 21.0722 88.3271 20.2187C88.4408 20.0445 88.5983 19.7832 88.677 19.6525C89.2632 18.6597 89.4207 18.4071 89.5257 18.32C89.5957 18.2591 89.6569 18.172 89.6569 18.1284C89.6569 18.0849 89.7881 17.841 89.9456 17.5972C90.3393 16.9875 90.768 16.2734 91.0393 15.7943C91.153 15.5766 91.3892 15.1673 91.5642 14.8799C91.7304 14.5925 91.9842 14.1396 92.1329 13.8783C92.2729 13.617 92.4304 13.3558 92.4741 13.3035C92.5178 13.2425 92.6403 13.0335 92.7453 12.8245C93.0078 12.3281 94.3376 10.0288 94.6176 9.58465C94.7401 9.39305 94.9238 9.0708 95.0376 8.8792C95.5975 7.85151 96.4199 6.41448 96.5162 6.30126C96.5774 6.23159 96.6824 6.03998 96.7436 5.88321C96.8661 5.56097 97.2161 5.25615 97.4436 5.25615C97.531 5.25615 97.7848 5.3955 98.021 5.56097C98.371 5.81354 99.8845 6.81511 100.514 7.21573C101.302 7.71216 101.897 8.18246 101.984 8.35664C102.098 8.6005 102.081 8.63534 101.573 9.41046C101.389 9.68916 101.118 10.1333 100.969 10.3946C100.829 10.6559 100.584 11.0826 100.427 11.3352C100.278 11.5878 100.156 11.8142 100.156 11.8403C100.156 11.8665 100.086 11.9884 99.9983 12.119C99.6658 12.5981 99.1759 13.3819 98.9659 13.7564C98.8522 13.9654 98.6509 14.3225 98.5284 14.5489C98.3972 14.7841 98.2747 14.9844 98.2397 15.0105C98.2135 15.0366 98.126 15.1673 98.056 15.3153C97.986 15.4547 97.8198 15.7421 97.6885 15.9424C97.5573 16.1427 97.4436 16.3343 97.4436 16.3692C97.4436 16.404 97.3561 16.5782 97.2423 16.7437C97.0061 17.1094 96.5337 17.8759 96.2799 18.32C96.1924 18.4855 96.035 18.7294 95.9475 18.86C95.8512 18.9906 95.7287 19.1997 95.6675 19.339C95.5713 19.5567 95.37 19.9138 94.5126 21.4031C94.3726 21.6557 94.1802 21.9518 94.1014 22.065C94.0139 22.1869 93.9439 22.3089 93.9439 22.335C93.9439 22.3698 93.7602 22.7095 93.5327 23.084C93.314 23.4585 92.9815 24.0159 92.8066 24.3294C92.6316 24.643 92.3954 25.0523 92.2816 25.2439C92.1154 25.5313 91.6517 26.3674 90.5581 28.3792C90.5056 28.475 90.3831 28.7102 90.2868 28.9018C90.1906 29.0934 89.9456 29.5637 89.7357 29.9469C89.5344 30.3301 89.1932 30.992 88.9832 31.4275C88.7733 31.8542 88.537 32.3071 88.467 32.429C88.3096 32.699 86.4198 36.5137 86.4198 36.5659C86.4198 36.5921 86.306 36.8446 86.166 37.132C86.0173 37.4281 85.8598 37.8113 85.7986 37.9855C85.7461 38.1597 85.6061 38.482 85.5011 38.6997C85.2649 39.1613 84.7924 40.6331 84.67 41.3038C84.5125 42.1486 84.5562 42.9063 84.7837 43.2372C85.0024 43.5595 85.4661 43.8294 85.8073 43.8294C86.551 43.8382 87.9946 43.3069 88.9307 42.6624C89.1145 42.5405 89.2894 42.4447 89.3244 42.4447C89.4644 42.4447 90.8643 41.4779 91.5729 40.8944C91.9754 40.5548 92.4129 40.2325 92.5353 40.1716C93.2265 39.8232 93.8564 39.2919 93.8564 39.0568C93.8564 38.8042 94.9851 36.5224 95.7637 35.1899C96.6386 33.7093 97.4523 32.6468 99.3334 30.513C100.366 29.3547 101.906 27.8828 103.227 26.8116C103.34 26.7158 103.638 26.4806 103.874 26.2803C104.81 25.5139 106.735 24.2597 107.636 23.8156C110.156 22.5789 111.328 22.1957 113.122 22.0128C114.312 21.8908 114.504 21.8908 115.178 22.0128C116.595 22.274 117.374 22.8663 117.995 24.1552C118.301 24.791 118.31 24.8346 118.31 25.81C118.31 26.768 118.293 26.8464 117.978 27.6041C117.803 28.0483 117.654 28.4489 117.654 28.5012C117.654 28.5882 117.339 29.2589 116.98 29.9469C116.901 30.0862 116.77 30.3475 116.683 30.513C116.604 30.6785 116.446 30.8962 116.341 30.992C116.237 31.0878 116.018 31.3578 115.86 31.6016C115.222 32.5945 112.667 34.676 110.777 35.7473C109.43 36.5137 108.004 37.2801 107.356 37.5762C106.928 37.7765 106.403 38.0291 106.184 38.1423C105.668 38.4036 103.043 39.4574 102.474 39.6316C102.238 39.7013 101.739 39.8754 101.381 40.0061C101.022 40.1454 100.453 40.3457 100.121 40.459C99.3246 40.7377 99.1584 40.9467 99.1584 41.687C99.1584 42.584 99.6221 43.2546 100.558 43.7075C101.459 44.1517 102.159 44.1778 103.83 43.8382C105.003 43.603 105.545 43.4549 106.131 43.1937C106.411 43.0717 106.691 42.9672 106.761 42.9672C106.84 42.9672 106.963 42.9324 107.05 42.8888C107.129 42.8366 107.417 42.706 107.68 42.5927C109.666 41.6957 111.293 40.8335 112.544 39.9974C113.551 39.3355 113.691 39.6577 113.043 41.1383C112.842 41.6086 112.789 41.7479 112.527 42.4447C112.133 43.5333 111.914 43.8817 111.381 44.3259C111.101 44.5436 110.812 44.7526 110.742 44.7788C110.672 44.8049 110.453 44.9355 110.261 45.0662C109.753 45.4058 106.831 46.808 105.781 47.2261C104.705 47.6441 102.719 48.2189 101.818 48.367C101.459 48.4192 101.066 48.5063 100.943 48.5412C100.374 48.724 99.4383 48.8198 98.9134 48.7589C98.6072 48.724 98.0647 48.6718 97.706 48.637C96.1137 48.4889 94.4076 47.3044 93.6552 45.8239C93.3753 45.2665 93.3053 45.04 93.2703 44.4565C93.244 44.0646 93.174 43.6901 93.1215 43.6117C93.0253 43.4811 92.9815 43.4898 92.6666 43.6204C92.4829 43.6988 92.2116 43.8643 92.0629 44.0036C91.9229 44.1343 91.6079 44.3781 91.3805 44.5436C90.9343 44.8571 89.2457 46.1809 88.8695 46.5119C88.2833 47.0257 88.1171 47.1477 88.0296 47.1477C87.9771 47.1477 87.8809 47.2086 87.8196 47.2783C87.7584 47.348 87.4959 47.5396 87.2334 47.6876C86.971 47.8444 86.6472 48.036 86.516 48.1144C86.2273 48.2886 85.3874 48.7502 84.7574 49.0811C84.495 49.2205 84.0838 49.3772 83.8388 49.4295C83.6026 49.473 83.1476 49.595 82.8327 49.6995C82.4389 49.8214 82.0452 49.8737 81.564 49.8737C80.9516 49.865 80.7766 49.8214 80.2079 49.5688C79.6043 49.2901 79.5168 49.2118 79.1318 48.6457C78.5019 47.6876 78.3444 47.0257 78.3969 45.4232C78.4231 44.7178 78.4756 43.9427 78.5281 43.7075C78.5719 43.4637 78.6594 43.0369 78.7206 42.7495C78.9568 41.5825 80.4442 38.421 81.8353 36.1566C82.1765 35.5905 82.2377 35.1289 81.9578 35.1289C81.774 35.1289 81.3016 35.5557 80.7766 36.2088C80.3654 36.7227 79.9105 37.2365 79.5518 37.6197C79.4118 37.7678 78.9131 38.3252 78.4581 38.839C78.0032 39.3616 77.312 40.1193 76.9183 40.5286C76.5333 40.938 76.0609 41.4518 75.8684 41.6696C74.5473 43.2285 70.1728 47.6876 69.3941 48.2799C68.7554 48.7676 68.5105 48.9418 68.388 49.0202C68.3092 49.0637 67.968 49.2727 67.6268 49.4818C67.0494 49.8388 66.0957 50.2482 65.2471 50.5094C65.0196 50.5791 64.4684 50.6314 63.9085 50.6314C63.1386 50.6314 62.9023 50.5965 62.5786 50.4485C61.7212 50.0479 61.0213 49.1421 60.7326 48.0709C60.4788 47.1303 60.6363 45.2491 61.0913 43.8382C61.205 43.4811 61.3625 42.9498 61.4412 42.6624C61.52 42.375 61.6162 42.0963 61.6512 42.0528C61.6862 42.0005 61.765 41.7915 61.8262 41.5737C61.8874 41.356 62.0187 40.9815 62.1149 40.7464C62.2112 40.5025 62.4036 40.0322 62.5349 39.7013C63.0598 38.3862 63.1386 38.2033 63.3573 37.7765C63.4798 37.5239 63.5848 37.2714 63.5848 37.2017C63.5848 37.132 63.6198 37.0449 63.6635 37.0014C63.7335 36.923 64.1884 36.0869 64.6959 35.1202C64.9146 34.7021 64.8971 34.4322 64.6434 34.4322C64.5647 34.4322 64.3109 34.6586 64.0835 34.9286C63.856 35.2073 63.3223 35.8431 62.9111 36.3482C62.1499 37.2627 61.1175 38.4558 60.8726 38.6997C60.8026 38.7694 60.4264 39.1787 60.0414 39.6142C59.6564 40.0409 59.0178 40.729 58.6241 41.1383C58.2391 41.5476 57.6879 42.1311 57.3992 42.4447C55.8244 44.1778 54.4683 45.5713 50.8374 49.1769C48.3177 51.6939 46.9091 53.07 45.7805 54.1151C43.9694 55.8047 43.5407 56.2053 42.5433 57.1198C41.4672 58.1039 40.3036 59.1752 40.2248 59.2535C40.1986 59.2797 39.8836 59.5584 39.5249 59.8719C39.1662 60.1854 38.2475 60.9867 37.4776 61.6573C36.7164 62.3192 35.9728 62.9637 35.824 63.0856C35.6753 63.2075 35.2379 63.582 34.8529 63.913C34.1005 64.5662 33.2081 65.3065 32.9281 65.5242C32.8319 65.5939 32.5956 65.7942 32.4032 65.9684C31.9482 66.3603 30.8196 67.2835 30.1722 67.7886C29.8922 68.0063 29.411 68.3895 29.1048 68.6421C28.4923 69.156 28.4573 69.1734 27.8887 69.6176C27.6699 69.783 27.4775 69.9398 27.4512 69.9659C27.425 69.9921 27.0575 70.2882 26.6201 70.6191C26.1913 70.9501 25.8151 71.2462 25.7889 71.2723C25.7626 71.2984 25.6052 71.4204 25.4389 71.5336C25.2727 71.6468 25.089 71.7862 25.0365 71.8384C24.984 71.882 24.459 72.2739 23.8641 72.7093C23.2779 73.1361 22.2018 73.9373 21.4669 74.486C20.7407 75.026 20.067 75.505 19.9708 75.5398C19.8658 75.5747 19.7346 75.6792 19.6646 75.7576C19.5596 75.8795 18.7459 76.4717 17.7923 77.0988C17.696 77.1685 17.3898 77.3775 17.1098 77.5604C16.8386 77.7433 16.5936 77.8913 16.5761 77.8913C16.5499 77.8913 16.1999 78.0917 15.7975 78.3355C14.9751 78.8407 13.6102 79.5461 13.4615 79.5461C13.409 79.5461 13.2953 79.5809 13.2078 79.6245C12.5253 79.9729 10.9418 80.5564 10.4343 80.6435C9.75189 80.7567 9.13071 80.9396 9.06947 81.0441C8.97323 81.2009 6.43601 81.2009 6.39226 81.0528C6.36601 80.9918 6.09479 80.8612 5.78858 80.7654C4.42373 80.3474 3.47008 79.2064 3.21636 77.6736C3.10262 77.0378 3.14637 75.5224 3.28635 74.6689C3.47008 73.5541 4.205 71.7513 4.96617 70.532C5.17614 70.1924 5.41237 69.783 5.49986 69.6176C5.5786 69.4521 5.92856 68.9905 6.26978 68.5986C7.4509 67.2399 8.05458 67.0396 8.92074 67.7189C9.17446 67.9192 9.40193 68.1021 9.42818 68.137C9.45443 68.1631 9.78689 68.3983 10.1631 68.6595C10.5481 68.9208 11.0905 69.3476 11.3705 69.6088C11.8692 70.0704 11.8779 70.0879 11.8779 70.5407C11.8779 70.9675 11.8429 71.0372 11.4142 71.551C10.4081 72.7355 10.1019 73.3277 10.0931 74.1464C10.0844 74.6689 10.2943 74.9825 10.8368 75.2524C11.2917 75.4876 11.4142 75.4702 13.059 75.0608C13.9164 74.8431 14.5201 74.6167 15.5088 74.1464C16.2262 73.8067 16.8386 73.4932 16.8649 73.4496C16.8911 73.4148 17.1448 73.2319 17.4336 73.049C17.7223 72.8574 18.5097 72.3 19.1834 71.7949C19.857 71.2897 20.4957 70.8194 20.592 70.7498C20.6969 70.6801 21.0294 70.4449 21.3356 70.2359C21.6418 70.0182 22.1405 69.6437 22.4293 69.4085C22.7267 69.1647 23.1992 68.7902 23.4791 68.5637C24.3278 67.9105 26.0951 66.5345 26.1389 66.4822C26.1651 66.4561 26.3226 66.3342 26.4888 66.2122C26.655 66.0816 26.8913 65.89 27.0138 65.7855C27.1362 65.681 27.3725 65.4894 27.5387 65.3674C27.7049 65.2368 27.9849 65.0191 28.1599 64.871C28.3261 64.7317 28.6586 64.453 28.8948 64.2614C29.131 64.0698 29.3585 63.8694 29.411 63.8259C29.4635 63.7736 29.9797 63.3469 30.5571 62.8679C31.1346 62.3976 31.782 61.8489 32.0007 61.6486C32.2194 61.457 32.7269 61.0215 33.1293 60.6906C33.5318 60.3509 33.9255 60.02 34.013 59.9503C34.2667 59.7238 35.5091 58.6178 36.1128 58.0778C36.9702 57.3114 37.3201 56.9978 37.9063 56.4753C39.0874 55.4302 43.0858 51.5981 45.2993 49.4121C48.064 46.6687 51.4061 43.2198 53.0947 41.356C53.3571 41.0686 53.5846 40.816 53.6108 40.7899C53.8821 40.5199 54.9232 39.379 55.4044 38.8303C55.7456 38.4471 56.2181 37.9246 56.4543 37.6633C56.6993 37.402 56.9705 37.0972 57.0667 36.9927C57.163 36.8882 57.6529 36.2959 58.1604 35.6863C58.6678 35.0766 59.3152 34.3189 59.6039 33.9967C59.8927 33.6832 60.2076 33.3261 60.3039 33.2042C60.4001 33.0735 61.0825 32.2548 61.8087 31.3752C62.8848 30.0862 64.0922 28.597 65.6233 26.6809C65.7808 26.4806 66.7957 25.1568 67.2856 24.5036C67.5218 24.1901 67.8105 23.8069 67.933 23.6501C68.0555 23.4933 68.2742 23.2059 68.4142 22.9969C68.5542 22.7966 68.9217 22.274 69.2366 21.8473C69.5429 21.4118 69.9016 20.9067 70.0328 20.7151C70.5927 19.879 71.2489 18.8687 71.3364 18.7119C71.3889 18.6161 71.5901 18.2852 71.7739 17.9891C71.9576 17.6843 72.2376 17.2314 72.3863 16.9875C72.5263 16.7349 72.815 16.2908 73.0162 15.986C73.2175 15.6811 73.3837 15.4024 73.3837 15.3763C73.3837 15.3415 73.4799 15.176 73.5937 15.0105C73.7074 14.845 73.9174 14.488 74.0574 14.2267C74.1973 13.9654 74.5298 13.4167 74.7748 13.0074C75.0285 12.5981 75.3347 12.0929 75.4485 11.8752C75.8859 11.0652 76.6208 9.77625 76.7083 9.65432C76.7433 9.60207 76.9183 9.28853 77.102 8.95758C77.4345 8.35664 77.6182 8.01698 78.1344 7.08509C78.6594 6.13578 79.1668 5.19518 79.6393 4.28942C79.893 3.77557 80.1729 3.29657 80.2517 3.21818C80.4967 2.98303 80.8029 3.06142 81.6165 3.57526ZM176.622 10.2204C176.692 10.3598 176.535 10.7517 175.678 12.5022C174.33 15.2457 174.085 15.7595 174.085 15.8553C174.085 15.8989 173.989 16.0295 173.875 16.134C173.691 16.3082 173.604 16.3256 173.237 16.2821C171.977 16.1166 170.454 16.0643 169.361 16.134C168.713 16.1776 168.101 16.2124 168.005 16.2211C167.821 16.2211 166.867 16.3605 166.43 16.4475C166.29 16.4737 165.949 16.5346 165.686 16.5869C165.424 16.6391 165.126 16.7088 165.03 16.7524C164.61 16.9091 164.216 17.0136 164.041 17.0136C163.945 17.0136 163.831 17.0485 163.805 17.1007C163.779 17.1443 163.674 17.1878 163.578 17.1878C163.49 17.1878 163.341 17.2227 163.254 17.2749C163.175 17.3185 162.816 17.4578 162.466 17.5797C162.108 17.7017 161.609 17.8933 161.347 18.0152C161.084 18.1371 160.839 18.2329 160.795 18.2329C160.568 18.2329 157.462 19.7745 156.15 20.5409C155.835 20.7151 155.362 20.9851 155.1 21.1331C154.837 21.2812 154.242 21.647 153.787 21.9518C152.974 22.4918 152.808 22.5527 152.528 22.4482C152.414 22.4047 151.661 21.2376 151.014 20.1228C150.839 19.8267 150.883 19.5655 151.119 19.3913C151.626 19.0168 151.95 18.8078 152.633 18.4158C153.026 18.1807 153.429 17.9281 153.516 17.8497C153.595 17.7714 153.7 17.7104 153.735 17.7104C153.77 17.7104 153.962 17.5972 154.164 17.4578C154.365 17.3272 154.767 17.092 155.056 16.9353C155.345 16.7872 155.756 16.5608 155.975 16.4301C156.701 16.0034 157.401 15.6463 161.172 13.7825C161.452 13.6432 161.74 13.5299 161.81 13.5299C161.872 13.5299 161.994 13.4951 162.082 13.4516C162.536 13.2251 163.053 13.0248 163.324 12.9638C163.49 12.929 163.805 12.8245 164.024 12.7287C164.671 12.45 164.732 12.4326 165.511 12.2323C165.922 12.1278 166.526 11.9623 166.85 11.8752C167.182 11.7794 167.716 11.6487 168.031 11.5791C168.355 11.5094 168.775 11.4049 168.967 11.3526C169.159 11.3004 169.553 11.222 169.842 11.1784C170.131 11.1349 170.542 11.0565 170.761 11.0043C171.268 10.8823 171.837 10.7517 172.335 10.6646C172.554 10.6211 172.965 10.5427 173.254 10.4817C174.33 10.264 175.634 10.0724 176.071 10.0549C176.447 10.0462 176.544 10.0811 176.622 10.2204ZM189.615 19.1387C190.096 19.3739 190.507 19.5916 190.533 19.6177C190.647 19.7571 191.697 20.5844 191.758 20.5844C191.881 20.5844 192.196 20.1403 192.196 19.9748C192.196 19.7484 192.511 19.5132 192.808 19.5219C192.948 19.5219 193.281 19.6787 193.578 19.8703C194.051 20.1925 194.453 20.4277 195.835 21.1593C196.133 21.3073 196.483 21.5076 196.605 21.586C196.903 21.7863 196.903 22.1173 196.614 22.3437C196.491 22.4395 196.273 22.7618 196.124 23.0579C195.984 23.3453 195.739 23.8243 195.573 24.1117C195.162 24.8694 194.225 26.6374 193.928 27.2296C193.788 27.5083 193.377 28.2747 193.009 28.9279C192.642 29.5811 192.091 30.6088 191.785 31.2097C191.478 31.8107 191.19 32.3594 191.155 32.429C191.111 32.4987 191.023 32.6729 190.962 32.8209C190.892 32.9603 190.717 33.2825 190.568 33.5351C190.411 33.7964 190.043 34.5541 189.755 35.2421C188.609 37.8636 188.626 37.8201 188.775 38.2381C189.081 39.0742 189.519 39.0829 191.032 38.2904C191.365 38.1249 192.047 37.7678 192.563 37.5152C193.079 37.254 193.517 37.0101 193.543 36.9666C193.569 36.923 193.797 36.7837 194.051 36.653C194.295 36.5224 194.689 36.2872 194.934 36.1218C195.372 35.8169 195.564 35.7734 195.774 35.904C195.862 35.965 195.879 36.0869 195.835 36.383C195.8 36.6008 195.739 36.8011 195.687 36.8272C195.643 36.862 195.608 36.9404 195.608 37.0014C195.608 37.0711 195.503 37.3498 195.38 37.6197C195.258 37.8897 195.1 38.3165 195.039 38.5603C194.864 39.2135 194.444 40.1106 194.199 40.3283C193.648 40.8248 193.044 41.3299 192.826 41.4605C192.694 41.5476 192.397 41.7654 192.152 41.9395C191.916 42.1224 191.671 42.2705 191.618 42.2705C191.575 42.2705 191.452 42.3402 191.356 42.4185C190.7 43.0108 188.67 44.0994 187.384 44.5436C185.94 45.04 184.715 44.9007 183.814 44.143C183.508 43.8904 183.14 43.3679 182.948 42.9324C182.878 42.793 182.834 42.3315 182.834 41.8437C182.834 41.1557 182.878 40.8944 183.062 40.398C183.184 40.0583 183.324 39.6664 183.359 39.5097C183.429 39.231 183.875 38.3165 184.295 37.5936C184.497 37.2452 184.514 36.8707 184.33 36.8707C184.287 36.8707 184.059 37.0972 183.805 37.3672C183.56 37.6459 183.088 38.1597 182.764 38.5168C179.912 41.6521 176.167 44.3433 173.517 45.162C173.062 45.3013 171.872 45.4929 171.46 45.4929C170.069 45.4842 168.635 44.4304 167.856 42.8366C167.576 42.2705 167.392 42.2531 166.675 42.7147C165.975 43.1675 165.914 43.2111 165.415 43.4811C165.205 43.5943 164.75 43.8556 164.417 44.0559C163.42 44.6568 160.804 45.9284 160.577 45.9284C160.507 45.9284 160.428 45.9632 160.402 46.0068C160.375 46.0503 160.227 46.1026 160.069 46.1287C159.912 46.1548 159.588 46.2245 159.343 46.2855C158.809 46.4248 157.891 46.4248 157.427 46.2942C156.928 46.1548 156.421 45.7629 156.185 45.3361C155.992 44.9965 155.975 44.8658 155.975 43.7772C155.975 43.124 156.018 42.4534 156.062 42.2966C156.115 42.1398 156.193 41.8612 156.246 41.6783C156.412 41.147 157.34 39.3442 157.838 38.5865C158.311 37.8636 158.389 37.7417 159.404 36.1043C159.702 35.6079 160.06 35.0418 160.192 34.8415C160.603 34.2057 161.049 33.3087 161.049 33.1171C161.049 32.8122 160.795 32.6032 160.437 32.6032C160.025 32.6032 159.361 33.0735 157.917 34.3712C156.745 35.425 154.33 37.9072 153.516 38.8739C153.219 39.231 152.79 39.7274 152.571 39.9712C151.863 40.7551 151.653 40.9989 151.075 41.7044C150.769 42.0876 150.367 42.5579 150.192 42.7495C149.885 43.0804 149.264 43.8382 148.8 44.4478C148.118 45.3449 147.506 46.0939 147.129 46.4771L146.709 46.9125L146.167 46.8516C145.87 46.8254 145.581 46.7645 145.528 46.7209C145.476 46.6774 145.275 46.6164 145.082 46.5903C144.312 46.4684 144.163 46.4248 144.111 46.3551C144.085 46.3116 143.953 46.2767 143.813 46.2767C143.674 46.2767 143.534 46.2332 143.507 46.1897C143.481 46.1374 143.332 46.1026 143.184 46.1026C143.035 46.1026 142.834 46.0416 142.746 45.9545C142.562 45.789 142.536 45.3449 142.711 45.101C142.772 45.0052 143.105 44.3955 143.446 43.7511C144.478 41.7828 144.706 41.356 144.776 41.2689C144.811 41.2167 145.038 40.8073 145.283 40.3545C145.975 39.0394 146.368 38.3165 146.447 38.212C146.491 38.1684 146.727 37.7155 146.972 37.2104C147.226 36.714 147.541 36.1392 147.672 35.9389C147.812 35.7385 147.926 35.5208 147.926 35.4424C147.926 35.3728 147.961 35.2944 148.004 35.2682C148.048 35.2334 148.372 34.676 148.713 34.0141C149.632 32.281 149.947 31.7236 150.139 31.4362C150.524 30.8875 150.297 30.2517 149.807 30.513C149.168 30.8527 144.793 35.0854 142.099 37.9594C139.763 40.459 137.654 43.1414 136.246 45.4145C136.202 45.4929 136.079 45.6671 135.992 45.8064C135.896 45.9458 135.607 46.3813 135.353 46.7645C135.056 47.2261 134.811 47.496 134.679 47.5309C134.47 47.5831 134.076 47.496 133.761 47.3219C133.656 47.2696 133.323 47.1738 133.026 47.1041C132.728 47.0432 132.247 46.9212 131.959 46.8428C131.67 46.7645 131.337 46.6774 131.215 46.6512C130.926 46.5903 130.427 46.2158 130.427 46.0503C130.427 45.8761 130.086 45.8935 129.771 46.0851C129.474 46.268 128.573 46.7645 128.223 46.9474C127.733 47.1999 126.272 47.5222 125.572 47.5309C124.382 47.5483 123.411 46.9996 122.947 46.059C122.737 45.6323 122.658 44.2039 122.816 43.4898C122.912 43.0108 123.279 41.9221 123.437 41.6434C123.481 41.5563 123.516 41.4344 123.516 41.3647C123.516 41.2863 123.621 41.0425 123.761 40.816C123.892 40.5896 124.093 40.1803 124.216 39.919C124.329 39.6577 124.496 39.3355 124.583 39.2048C124.671 39.0829 124.741 38.9436 124.741 38.8913C124.741 38.8478 124.802 38.7607 124.872 38.6997C124.994 38.5952 125.79 37.3323 125.79 37.2365C125.79 37.1494 126.613 35.965 127.295 35.0766C128.039 34.1012 128.293 33.6483 128.214 33.4393C128.126 33.2303 127.943 33.2738 127.619 33.5699C127.453 33.718 127.077 34.0751 126.77 34.3538C126.473 34.6412 126.079 34.9634 125.895 35.0854C125.72 35.1986 125.414 35.4076 125.222 35.5557C123.612 36.7227 122.055 37.6459 120.891 38.1162C120.672 38.2033 120.419 38.3078 120.322 38.3513C120.086 38.4471 118.844 38.6126 118.371 38.6126C117.339 38.6126 116.56 38.09 116.062 37.0624C115.782 36.4875 115.782 36.4614 115.782 35.1986C115.782 34.3102 115.817 33.8748 115.887 33.8051C115.948 33.7441 115.992 33.6396 115.992 33.5612C115.992 33.3087 116.368 32.5074 117.111 31.1488C117.505 30.4259 117.829 29.7814 117.829 29.7205C117.829 29.6595 117.899 29.5288 117.986 29.433C118.083 29.3285 118.214 29.0847 118.293 28.8931C118.371 28.6928 118.529 28.3879 118.651 28.205C118.774 28.0221 118.879 27.8393 118.879 27.787C118.879 27.7434 119.071 27.3254 119.307 26.8638C119.736 26.0277 119.911 25.6881 120.83 23.9636C121.635 22.4656 122.378 20.9851 122.378 20.9067C122.378 20.837 122.693 20.3667 122.877 20.1751C123.026 20.0096 123.498 20.0358 123.778 20.2361C123.909 20.3319 124.548 20.6715 125.187 20.9851C125.834 21.3073 126.429 21.6208 126.517 21.6992C126.7 21.8647 126.709 22.2218 126.525 22.4831C126.455 22.5963 126.123 23.1972 125.799 23.833C125.467 24.4688 125.003 25.3484 124.758 25.7839C124.504 26.228 124.207 26.7767 124.093 27.0032C123.586 28.0221 122.553 29.9904 122.343 30.3388C122.221 30.5565 121.941 31.1052 121.713 31.5581C121.495 32.011 121.276 32.4552 121.232 32.5422C121.118 32.7513 121.302 33.387 121.53 33.5787C121.827 33.8573 122.405 33.779 123.131 33.387C125.222 32.2374 127.217 30.5304 129.343 28.0744C129.535 27.8654 129.859 27.4909 130.077 27.2383C130.865 26.3413 131.906 24.9391 132.702 23.6936C133.078 23.1101 133.078 23.1101 133.49 23.1101C133.708 23.1101 133.927 23.145 133.98 23.1972C134.111 23.3279 135.073 23.894 135.161 23.894C135.204 23.894 135.449 24.0246 135.703 24.1814C135.948 24.3468 136.263 24.5384 136.403 24.6255C136.727 24.8171 136.709 25.0697 136.324 25.7839C135.904 26.559 134.933 28.4315 133.665 30.9049C133.105 32.0023 132.475 33.2129 132.274 33.5874C132.072 33.9619 131.871 34.3364 131.836 34.4147C131.792 34.4931 131.67 34.737 131.565 34.9547C131.46 35.1724 130.952 36.1653 130.454 37.1756C129.43 39.2048 129.483 39.1003 129.159 40.0061C128.721 41.2515 128.783 41.835 129.378 41.9657C129.649 42.0266 129.903 41.9221 131.04 41.2863C131.259 41.1644 131.652 40.9554 131.915 40.816C132.772 40.3719 133.568 39.8232 133.77 39.5445C133.98 39.2571 134.338 38.5865 135.721 35.8692C136.184 34.9547 136.814 33.7441 137.12 33.1693C137.418 32.5945 137.96 31.5581 138.319 30.8614C138.678 30.1646 139.264 29.0498 139.605 28.3792C139.955 27.7086 140.699 26.2803 141.25 25.2003C141.81 24.1204 142.291 23.1972 142.326 23.1537C142.361 23.1014 142.72 22.4221 143.114 21.6296C143.516 20.837 143.901 20.1228 143.971 20.0358C144.146 19.8354 144.47 19.8442 144.776 20.0619C144.916 20.1577 145.231 20.3493 145.493 20.4886C145.747 20.628 146.281 20.9154 146.683 21.1418C147.077 21.3596 147.453 21.5425 147.523 21.5425C147.584 21.5425 147.742 21.6383 147.873 21.7602C148.171 22.0389 148.179 22.4743 147.891 22.8227C147.777 22.9534 147.558 23.3017 147.409 23.5891C147.261 23.8765 146.998 24.3468 146.832 24.6342C146.674 24.9216 146.421 25.3745 146.281 25.6358C145.712 26.707 145.371 27.3254 145.24 27.5257C145.012 27.8654 144.793 28.2486 144.505 28.8147C144.356 29.1021 144.146 29.494 144.041 29.6856C143.927 29.8772 143.717 30.2517 143.569 30.5217C143.411 30.7917 143.149 31.2184 142.982 31.471C142.571 32.0807 142.589 32.6119 143.026 32.6032C143.192 32.5945 145.187 30.661 147.322 28.4315C149.352 26.3151 149.343 26.3238 150.148 25.6097C151.871 24.0594 152.431 23.6588 153.919 22.9185C155.222 22.2653 155.738 22.1173 156.622 22.1695C157.602 22.2305 158.232 22.5963 158.748 23.4062C158.949 23.7111 158.967 23.8243 158.967 24.73C158.958 25.2787 158.914 25.871 158.853 26.0539C158.494 27.1773 156.858 29.8772 155.275 31.9326C154.916 32.4029 154.566 32.8732 154.505 32.9777C154.365 33.2303 154.409 33.509 154.592 33.5438C154.785 33.5787 155.371 33.1693 155.616 32.8209C156.018 32.2461 159.072 29.285 160.568 28.0221C162.029 26.7941 164.155 25.5574 165.529 25.1394C166.194 24.9391 167.042 24.9565 167.488 25.1829C167.9 25.3919 168.407 25.9232 168.617 26.3587C168.731 26.5938 168.748 26.8203 168.722 27.308C168.617 28.7189 168.433 29.3982 167.803 30.5565C167.602 30.9397 167.313 31.4884 167.173 31.7758C167.025 32.0632 166.736 32.5684 166.517 32.908C166.307 33.239 166.097 33.5787 166.062 33.6483C165.984 33.8225 165.397 34.7283 164.444 36.1566C164.024 36.7924 163.674 37.3323 163.674 37.3672C163.674 37.3933 163.525 37.6197 163.341 37.8636C162.659 38.7694 162.353 39.7013 162.641 39.9887C162.843 40.189 163.394 40.1019 164.006 39.7884C164.33 39.6316 165.161 39.2222 165.861 38.8913C166.561 38.5603 167.2 38.212 167.278 38.1162C167.453 37.9246 167.698 37.2801 167.698 37.0101C167.698 36.6095 168.713 34.258 169.396 33.0996C169.641 32.6729 169.894 32.22 169.964 32.0981C170.183 31.68 171.303 30.0514 171.889 29.2937C173.901 26.6896 176.465 24.0159 178.381 22.5266C178.643 22.3263 179.081 21.9779 179.361 21.7602C180.297 21.0112 182.511 19.7919 184.007 19.191C185.126 18.7381 185.599 18.6684 187.252 18.6945L188.74 18.7207L189.615 19.1387Z" fill="#393939"/>
<path d="M110.83 26.5242C109.526 27.0554 108.529 27.6651 107.286 28.6754C106.604 29.2327 104.539 31.2881 104.285 31.6713C104.128 31.8978 102.85 33.5003 102.772 33.5612C102.737 33.5874 102.483 33.9532 102.203 34.3886C101.923 34.8154 101.591 35.3118 101.459 35.4773C101.162 35.8605 101.031 36.4353 101.241 36.4353C101.319 36.4353 101.451 36.4005 101.538 36.3569C101.617 36.3134 101.923 36.1914 102.212 36.0782C103.445 35.6253 106.359 34.1796 106.438 33.9793C106.455 33.9445 106.508 33.9096 106.543 33.9096C106.858 33.9096 109.299 31.9849 110.138 31.0791C110.961 30.1995 112.142 28.5012 112.142 28.2051C112.142 28.1441 112.177 28.0657 112.221 28.0396C112.326 27.9699 112.396 27.3254 112.326 27.0467C112.194 26.5503 111.416 26.2803 110.83 26.5242Z" fill="#393939"/>
<path d="M187.165 22.2914C186.841 22.3698 185.862 22.7617 185.512 22.9533C184.619 23.4323 184.409 23.563 183.018 24.5036C181.907 25.2613 179.256 27.726 177.786 29.3807C177.296 29.9381 176.168 31.4361 175.853 31.95C174.978 33.3696 174.435 34.4669 174.182 35.303C174.12 35.5208 174.033 35.7733 173.998 35.8691C173.779 36.4527 173.735 36.7662 173.735 37.6807C173.735 38.2555 173.77 38.7084 173.823 38.7432C173.875 38.7693 173.91 38.8651 173.91 38.9522C173.91 39.2745 174.811 39.9189 175.266 39.9189C175.511 39.9189 176.474 39.5619 176.955 39.2919C177.104 39.2048 177.384 39.048 177.567 38.9522C177.909 38.7606 178.39 38.4384 178.46 38.3513C178.486 38.3252 178.722 38.1423 178.985 37.9594C179.483 37.6023 179.58 37.5239 180.385 36.801C180.647 36.5659 181.006 36.2611 181.172 36.1217C182.432 35.1027 185.022 32.4116 185.905 31.2097C186.273 30.7133 187.384 28.8408 187.384 28.7275C187.384 28.6666 187.454 28.5272 187.55 28.414C187.638 28.3008 187.961 27.7173 188.276 27.1163C189.247 25.27 189.956 24.0071 190.105 23.8504C190.367 23.5891 190.035 23.1449 189.195 22.6572C188.652 22.3437 188.495 22.2914 187.953 22.274C187.62 22.2566 187.261 22.2653 187.165 22.2914ZM184.409 27.8305C184.243 28.0831 183.945 28.5795 183.744 28.9279C183.543 29.2849 183.123 29.8423 182.817 30.1646C182.511 30.4955 181.994 31.0703 181.653 31.4448C181.058 32.098 180.078 33.0299 178.74 34.2144C177.839 35.0069 177.585 34.9721 178.136 34.136C178.302 33.8921 178.539 33.4915 178.679 33.2389C178.81 32.9951 179.142 32.5335 179.413 32.2287C179.685 31.9151 180.122 31.3926 180.385 31.0703C180.945 30.391 181.767 29.5811 182.756 28.7275C183.141 28.3879 183.7 27.9089 183.989 27.6563C184.365 27.3254 184.54 27.2121 184.61 27.2818C184.672 27.3428 184.619 27.5082 184.409 27.8305Z" fill="#393939"/>
</symbol><symbol id="nav-arrow" viewBox="0 0 7 12">
<path d="M6.53033 6.53033C6.82322 6.23744 6.82322 5.76256 6.53033 5.46967L1.75736 0.696699C1.46447 0.403806 0.989593 0.403806 0.696699 0.696699C0.403806 0.989593 0.403806 1.46447 0.696699 1.75736L4.93934 6L0.696699 10.2426C0.403806 10.5355 0.403806 11.0104 0.696699 11.3033C0.989593 11.5962 1.46447 11.5962 1.75736 11.3033L6.53033 6.53033ZM5 6.75H6V5.25H5V6.75Z" fill="#A0A0A0"/>
</symbol><symbol id="nextIcon-mobile" viewBox="0 0 48 48">
<circle cx="24.0098" cy="23.9901" r="22.4901" fill="white" stroke="white" stroke-width="3"/>
<path d="M29.525 24.3495C29.9155 23.959 29.9155 23.3258 29.525 22.9353L23.161 16.5713C22.7705 16.1808 22.1373 16.1808 21.7468 16.5713C21.3563 16.9619 21.3563 17.595 21.7468 17.9855L27.4037 23.6424L21.7468 29.2992C21.3563 29.6898 21.3563 30.3229 21.7468 30.7135C22.1373 31.104 22.7705 31.104 23.161 30.7135L29.525 24.3495ZM27.8345 24.6424H28.8179V22.6424H27.8345V24.6424Z" fill="black"/>
</symbol><symbol id="nextIcon" viewBox="0 0 9 16">
<path d="M8.52497 8.3495C8.9155 7.95898 8.9155 7.32581 8.52497 6.93529L2.16101 0.571327C1.77049 0.180803 1.13732 0.180803 0.746799 0.571327C0.356274 0.961852 0.356274 1.59502 0.746799 1.98554L6.40365 7.6424L0.746799 13.2992C0.356274 13.6898 0.356274 14.3229 0.746799 14.7135C1.13732 15.104 1.77049 15.104 2.16101 14.7135L8.52497 8.3495ZM6.83447 8.6424H7.81787V6.6424H6.83447V8.6424Z" fill="black"/>
</symbol><symbol id="product-in-day-after" viewBox="0 0 13 20">
<g filter="url(#filter0_d_385_2149)">
<path d="M10.7071 9.70711C11.0976 9.31658 11.0976 8.68342 10.7071 8.29289L4.34315 1.92893C3.95262 1.53841 3.31946 1.53841 2.92893 1.92893C2.53841 2.31946 2.53841 2.95262 2.92893 3.34315L8.58579 9L2.92893 14.6569C2.53841 15.0474 2.53841 15.6805 2.92893 16.0711C3.31946 16.4616 3.95262 16.4616 4.34315 16.0711L10.7071 9.70711ZM9 10H10V8H9V10Z" fill="white"/>
</g>

</symbol><symbol id="product-in-day-before" viewBox="0 0 13 20">
<g filter="url(#filter0_d_385_2147)">
<path d="M2.29289 8.29289C1.90237 8.68342 1.90237 9.31658 2.29289 9.70711L8.65685 16.0711C9.04738 16.4616 9.68054 16.4616 10.0711 16.0711C10.4616 15.6805 10.4616 15.0474 10.0711 14.6569L4.41421 9L10.0711 3.34315C10.4616 2.95262 10.4616 2.31946 10.0711 1.92893C9.68054 1.53841 9.04738 1.53841 8.65685 1.92893L2.29289 8.29289ZM4 8H3V10H4V8Z" fill="white"/>
</g>

</symbol><symbol id="searcher-tablet" viewBox="0 0 17 26">
<path d="M17 9C17 13.9706 13.1944 18 8.5 18C3.80558 18 0 13.9706 0 9C0 4.02944 3.80558 0 8.5 0C13.1944 0 17 4.02944 17 9ZM2.22117 9C2.22117 12.6717 5.0323 15.6482 8.5 15.6482C11.9677 15.6482 14.7788 12.6717 14.7788 9C14.7788 5.32831 11.9677 2.35183 8.5 2.35183C5.0323 2.35183 2.22117 5.32831 2.22117 9Z" fill="white"/>
<line x1="11.3927" y1="15.4429" x2="15.3927" y2="25.4429" stroke="white" stroke-width="3"/>
</symbol><symbol id="searher-mobile" viewBox="0 0 15 23">
<path d="M15 7.94118C15 12.327 11.6421 15.8824 7.5 15.8824C3.35786 15.8824 0 12.327 0 7.94118C0 3.55539 3.35786 0 7.5 0C11.6421 0 15 3.55539 15 7.94118ZM1.95986 7.94118C1.95986 11.1809 4.44026 13.8072 7.5 13.8072C10.5597 13.8072 13.0401 11.1809 13.0401 7.94118C13.0401 4.70145 10.5597 2.07514 7.5 2.07514C4.44026 2.07514 1.95986 4.70145 1.95986 7.94118Z" fill="white"/>
<line x1="10.4739" y1="13.265" x2="14.0033" y2="22.0885" stroke="white" stroke-width="2"/>
</symbol><symbol id="shop-backgroud" viewBox="0 0 73 64">
<path d="M72.5974 19.8163L65.7773 6.62341V1.3913C65.7773 0.623024 65.1429 0 64.3599 0H8.57232C7.78965 0 7.15495 0.623024 7.15495 1.3913V6.62411L0.335122 19.8163C0.234347 20.0113 0.181763 20.2271 0.181763 20.4458V23.8686C0.181763 27.9356 3.20133 31.3215 7.15495 31.985V61.2169H5.70455C4.92174 61.2169 4.28718 61.8399 4.28718 62.6082C4.28718 63.3764 4.92174 63.9994 5.70455 63.9994H8.56141C8.56495 63.9994 8.56864 64 8.57232 64H47.3516H58.6907H64.3602H67.228C68.0107 64 68.6454 63.377 68.6454 62.6087C68.6454 61.8404 68.0107 61.2174 67.228 61.2174H65.7776V31.985C69.7314 31.3215 72.7509 27.9357 72.7509 23.8686V20.4458C72.7509 20.2271 72.6983 20.0113 72.5974 19.8163ZM9.98969 2.7826H62.9426V5.56561H53.2028H42.0451H30.8877H19.7299H9.98969V2.7826ZM44.8498 20.3053L43.6137 8.34821H52.1528L55.9694 20.6528V23.8686C55.9694 26.8757 53.4769 29.3222 50.4133 29.3222C47.3496 29.3222 44.857 26.8757 44.857 23.8686V20.4458C44.857 20.3989 44.8546 20.3521 44.8498 20.3053ZM42.0223 20.5162V23.8686H42.0222C42.0222 26.8757 39.5299 29.3222 36.4665 29.3222C33.4028 29.3222 30.9102 26.8757 30.9102 23.8686V20.5162L32.1686 8.34821H40.7644L42.0223 20.5162ZM29.3194 8.34835L28.0829 20.3054C28.0779 20.3521 28.0755 20.3989 28.0755 20.4458V23.8686C28.0755 26.8757 25.5832 29.3222 22.5195 29.3222C19.4559 29.3222 16.9636 26.8757 16.9636 23.8686V20.653L20.7803 8.34835H29.3194ZM3.01651 23.8686V20.7786L9.44259 8.34821H17.8168L14.1902 20.0405C14.1495 20.1719 14.1287 20.3085 14.1287 20.4458V23.8686C14.1287 26.8757 11.6361 29.3222 8.57232 29.3222C5.50881 29.3222 3.01651 26.8757 3.01651 23.8686ZM57.2734 61.2174H48.769V57.0432V51.478H50.1865C50.9693 51.478 51.6039 50.8552 51.6039 50.0867C51.6039 49.3185 50.9693 48.6954 50.1865 48.6954H48.769V38.9566H57.2734V61.2174ZM62.9426 61.2174H60.1078V37.5653C60.1078 36.7971 59.4733 36.174 58.6905 36.174H47.3513H14.242C13.459 36.174 12.8246 36.7971 12.8246 37.5653V57.0432C12.8246 57.8116 13.459 58.4345 14.242 58.4345H45.9342V61.2174H9.98969V31.985C12.2992 31.5975 14.2899 30.2823 15.5461 28.4434C17.053 30.6493 19.6161 32.1048 22.5194 32.1048C25.4228 32.1048 27.9856 30.6493 29.4927 28.4434C30.9998 30.6493 33.563 32.1048 36.4663 32.1048C39.3694 32.1048 41.9326 30.6495 43.4394 28.4434C44.9465 30.6495 47.5097 32.1048 50.413 32.1048C53.3163 32.1048 55.8795 30.6493 57.3865 28.4434C58.6425 30.2823 60.6332 31.5975 62.9426 31.985V61.2174ZM29.4831 38.9566H34.4212L31.7261 41.6018C31.1726 42.1449 31.1726 43.0259 31.7259 43.5693C32.0028 43.8411 32.3655 43.977 32.7283 43.977C33.091 43.977 33.4536 43.8411 33.7304 43.5695L38.4303 38.9566H45.9341V55.6519H15.6593V52.5261L29.4831 38.9566ZM15.6593 48.5908V38.9566H25.4741L15.6593 48.5908ZM69.9162 23.8686C69.9162 26.8757 67.4237 29.3222 64.3602 29.3222C61.2966 29.3222 58.8041 26.8757 58.8041 23.8686V20.4458C58.8041 20.3085 58.7834 20.1719 58.7426 20.0405L55.116 8.34821H63.4901L69.9162 20.7786V23.8686Z" fill="#6D6D6D"/>
</symbol><symbol id="sort-arrow" viewBox="0 0 16 9">
<path d="M7.29289 8.70711C7.68342 9.09763 8.31658 9.09763 8.70711 8.70711L15.0711 2.34315C15.4616 1.95262 15.4616 1.31946 15.0711 0.928932C14.6805 0.538408 14.0474 0.538408 13.6569 0.928932L8 6.58579L2.34315 0.928932C1.95262 0.538408 1.31946 0.538408 0.928932 0.928932C0.538408 1.31946 0.538408 1.95262 0.928932 2.34315L7.29289 8.70711ZM7 7V8H9V7H7Z" fill="#393939"/>
</symbol><symbol id="tel" viewBox="0 0 18 21">
<path d="M0.0911278 17.1084C0.0951373 17.4119 0.22312 17.6578 0.474698 17.8463L3.42539 20.0387C3.56049 20.1514 3.72837 20.2397 3.92904 20.3033C4.12974 20.3669 4.3225 20.3987 4.50733 20.3985C4.52028 20.3966 4.55967 20.3943 4.62534 20.3915C4.69088 20.3886 4.77547 20.3798 4.879 20.3649C5.12494 20.3296 5.51685 20.2302 6.05473 20.0668C6.59261 19.9035 7.23569 19.5994 7.98399 19.1548C8.73247 18.71 9.56379 18.0847 10.4781 17.2791C11.3925 16.4736 12.3362 15.4125 13.3091 14.096C14.0864 13.0722 14.714 12.1095 15.1919 11.2081C15.6698 10.3065 16.04 9.48333 16.3027 8.7384C16.5654 7.99345 16.7468 7.3263 16.8469 6.73692C16.947 6.14755 17.0001 5.64425 17.0061 5.22703C17.0121 4.80981 16.9918 4.48559 16.9453 4.25436C16.8989 4.02313 16.8738 3.89457 16.87 3.86867C16.8181 3.6911 16.7333 3.51495 16.6157 3.34022C16.4981 3.16549 16.3662 3.02917 16.22 2.93124L13.2665 0.719346C13.0592 0.564125 12.8391 0.503275 12.6062 0.536795C12.4379 0.561005 12.2961 0.630981 12.1807 0.746725C12.0652 0.862468 11.9725 0.99808 11.9024 1.15356L10.3928 5.39556C10.3061 5.61951 10.3064 5.85078 10.3936 6.08938C10.4807 6.32797 10.6205 6.51933 10.813 6.66346L11.9011 7.47837C11.9307 7.50055 11.9594 7.53937 11.9872 7.59485C12.015 7.65033 12.0317 7.69749 12.0373 7.73634C12.0247 8.01573 11.9529 8.34328 11.8221 8.71899C11.7115 9.05212 11.5266 9.46534 11.2674 9.95866C11.0081 10.452 10.6228 11.0328 10.1114 11.7012C9.61475 12.3807 9.16372 12.9181 8.75831 13.3135C8.35297 13.7088 8.00927 14.0062 7.72752 14.2053C7.44577 14.4045 7.22634 14.5319 7.06926 14.5874L6.83367 14.6709C6.80779 14.6747 6.76423 14.671 6.70327 14.66C6.64223 14.6489 6.59692 14.6323 6.56727 14.6101L5.29873 13.6427C5.03585 13.4691 4.74931 13.4046 4.43869 13.4493C4.21863 13.481 4.04961 13.5449 3.93138 13.6413L3.912 13.6441L0.484262 16.3975C0.236648 16.6051 0.105655 16.842 0.0911278 17.1084Z" fill="#393939"/>
</symbol><symbol id="test-catalog-item" viewBox="0 0 75 75">
<path d="M11.9441 0.22364C11.0284 0.472794 9.7856 1.42544 9.29503 2.24618C9.01705 2.72983 8.93528 3.15485 8.88623 4.56184C8.85352 5.51449 8.78811 6.29126 8.73906 6.29126C8.70635 6.29126 7.67616 5.92486 6.48245 5.48518C5.27238 5.04549 4.12773 4.67908 3.94785 4.67908C3.14659 4.67908 2.32898 5.36793 2.31263 6.02745C2.31263 7.03872 2.68873 7.27321 6.26987 8.57761C7.15289 8.88538 7.87239 9.19316 7.87239 9.23713C7.87239 9.2811 6.17175 10.2777 4.09502 11.4355C2.01829 12.5934 0.252244 13.6633 0.170483 13.7952C-0.0911529 14.2202 -0.0420961 14.997 0.252244 15.422C0.562937 15.8324 1.3642 16.0669 2.01829 15.9056C2.23087 15.8617 3.81703 15.0263 5.56672 14.059C7.30006 13.077 8.75541 12.3149 8.78811 12.3442C8.83717 12.3882 7.95415 14.1176 6.82584 16.1988C4.651 20.2585 4.09502 21.5775 3.65351 23.6587C3.40823 24.8605 3.37552 26.6779 3.37552 44.1039V63.2301L3.76798 64.3147C4.60194 66.557 6.36798 68.3451 8.77176 69.3857C10.3906 70.0892 11.5026 70.3383 12.9252 70.3383C13.7265 70.3383 13.9391 70.2797 14.2988 69.9719C14.8548 69.4736 14.9529 68.99 14.6749 68.3597C14.3969 67.7735 13.6447 67.4071 12.729 67.4071C11.9768 67.4071 10.5542 67.0114 9.72019 66.5717C8.70635 66.0441 7.46358 64.7544 7.02207 63.7724L6.64597 62.937V44.0307C6.64597 28.4952 6.67867 24.9338 6.8749 24.0984C7.20195 22.6328 7.85604 20.9913 8.93528 18.9248L9.88371 17.1368H19.8913H29.8989L30.9781 19.1593C32.875 22.7207 33.2184 24.2743 33.2184 29.4918C33.2184 33.1265 33.3001 33.4783 34.1177 33.8154C34.7882 34.0938 35.2951 34.0206 35.8674 33.5662L36.407 33.1412V28.9056C36.3907 22.9113 36.1618 22.0465 33.0221 16.2574C30.3567 11.3183 29.6699 9.85268 29.9152 9.54491C30.0297 9.413 30.3077 8.95866 30.5202 8.56295C30.8963 7.87411 30.929 7.68358 30.929 5.48518C30.929 3.33073 30.8963 3.08157 30.5366 2.40739C30.046 1.44009 29.0812 0.63401 28.0183 0.282265C27.2007 0.00379944 26.7429 -0.0108566 19.924 0.00379944C14.1844 0.00379944 12.5491 0.0477676 11.9441 0.22364ZM27.2334 3.22813C27.6586 3.52126 27.6586 3.55057 27.6586 5.48518C27.6586 8.32845 28.4599 8.06464 19.7605 8.02068L12.7454 7.97671L12.4347 7.62496C12.173 7.33184 12.124 7.03872 12.124 5.4119C12.124 2.6712 11.3554 2.92036 19.8913 2.92036C26.6284 2.92036 26.8083 2.93501 27.2334 3.22813ZM27.4624 12.4468C27.8385 13.2529 28.1492 13.971 28.1492 14.059C28.1492 14.1616 25.4838 14.2055 19.8913 14.2055C15.3454 14.2055 11.6334 14.1469 11.6334 14.0883C11.6334 13.971 12.8762 11.3476 13.0397 11.0984C13.0888 11.0398 16.1957 10.9812 19.9403 10.9812H26.7592L27.4624 12.4468Z" fill="#FF0000" fill-opacity="0.57"/>
<path d="M49.9793 9.53032C42.5718 10.1312 37.895 11.4356 36.6686 13.2383C35.5894 14.8065 36.4397 16.448 38.9252 17.5765C41.4925 18.7343 46.6435 19.5697 52.3014 19.7456C59.4146 19.9801 66.2171 19.3939 70.0108 18.236C70.6649 18.0308 71.2372 17.8696 71.27 17.8696C71.3027 17.8696 71.319 18.5292 71.319 19.3499V20.8155L70.2888 21.2552C65.1215 23.4096 50.6171 23.8053 42.8661 21.9733C41.2636 21.5923 40.8548 21.6069 40.2825 22.0466C39.6938 22.4863 39.5466 23.0579 39.841 23.6881C40.1189 24.2743 40.6095 24.4942 42.4573 24.8899C49.7014 26.3995 60.3303 26.4727 67.607 25.0511C68.4247 24.8899 69.1769 24.758 69.275 24.758C69.4058 24.758 69.1442 26.4581 68.5228 29.8436C67.9995 32.6576 67.558 35.1931 67.558 35.5009C67.558 35.9259 67.6725 36.1751 68.0322 36.4975C68.6863 37.0691 69.4876 37.0837 70.1744 36.5122C70.6649 36.1164 70.6649 36.0871 71.8259 29.7411L73.0033 23.3657L73.6083 22.7794C73.9517 22.457 74.3115 22.0466 74.4096 21.8707C74.7039 21.3578 74.6549 14.0151 74.3605 13.4875C73.3303 11.7141 69.5366 10.439 63.1429 9.73551C60.7064 9.45704 52.3668 9.32513 49.9793 9.53032ZM63.0611 12.6521C66.5442 13.0624 69.9291 13.8392 70.8939 14.4401C71.1718 14.6013 71.1391 14.6453 70.5341 14.9238C66.0372 16.9756 52.4649 17.5472 44.1743 16.023C42.5391 15.7152 40.4623 15.0996 40.0372 14.7772C39.6774 14.5134 39.6774 14.5134 40.6095 14.147C42.441 13.4142 46.0548 12.7693 49.9793 12.4469C52.3504 12.2564 60.9026 12.3883 63.0611 12.6521Z" fill="#FF0000" fill-opacity="0.57"/>
<path d="M25.7128 20.0533C25.0751 20.5956 25.0587 21.0939 25.6147 22.5449C26.3178 24.3329 26.5141 26.0477 26.5141 30.2979C26.5141 34.387 26.5795 34.812 27.3153 35.1638C27.7732 35.3836 28.6726 35.3396 29.065 35.0905C29.7845 34.6508 29.8336 34.2697 29.7355 29.4919C29.6374 24.67 29.5392 23.8786 28.6889 21.6069C28.1657 20.1999 27.626 19.6283 26.7921 19.6283C26.3833 19.6283 26.0726 19.7602 25.7128 20.0533Z" fill="#FF0000" fill-opacity="0.57"/>
<path d="M41.7051 36.9371C36.407 37.1423 30.602 37.9924 26.6284 39.1209C21.9026 40.4693 19.2699 42.0081 18.1416 44.0747L17.6019 45.0566V55.9754V66.8942L17.9944 67.627C18.4849 68.521 20.2183 70.1039 21.4774 70.7487C28.5906 74.5007 44.4032 76.0249 57.992 74.2808C66.9366 73.1377 73.0197 70.6901 74.6385 67.583L74.9983 66.8942V55.9021C74.9983 43.6057 75.0964 44.5876 73.7882 43.1074C72.6763 41.8469 70.0272 40.3667 67.3945 39.5459C66.07 39.1356 65.5794 39.2235 64.7781 40.0003C64.0096 40.7477 62.7505 41.246 60.9517 41.5392C58.2372 41.9495 55.2938 41.7297 53.3479 40.9529C51.9907 40.396 51.8926 40.2641 52.5467 39.7804C53.6096 38.9743 53.7731 38.2269 53.0209 37.4794C52.563 37.0251 52.514 37.0104 50.6989 36.9078C48.4422 36.7759 45.5479 36.7759 41.7051 36.9371ZM48.7529 40.2494C48.7693 42.5797 52.3341 44.3971 57.3379 44.6462C60.5756 44.7928 63.8134 44.1919 65.7429 43.078L66.7731 42.4771L67.4599 42.7116C69.1769 43.3272 71.1555 44.5876 71.548 45.3351C71.8096 45.8334 71.8096 45.892 71.548 46.3757C71.3027 46.8447 69.9127 48.0465 69.7983 47.8999C69.7656 47.8706 69.6675 47.6654 69.553 47.4456C69.2914 46.8886 68.4737 46.5515 67.6725 46.6395C66.397 46.8007 65.7102 47.9585 66.397 48.7939C66.7241 49.2043 66.7241 49.2336 66.4461 49.3655C65.8737 49.644 62.8159 50.3914 60.7391 50.7725C55.9643 51.6372 49.0473 52.1062 43.8963 51.9157L41.4108 51.8277L41.6561 51.4027C41.9504 50.9044 41.9831 49.7759 41.7378 49.2043C41.2309 48.0171 39.4158 46.9766 36.8812 46.4343C34.8535 45.9946 31.4196 45.9946 29.5391 46.4343C27.7403 46.8593 26.3504 47.5042 25.5491 48.281L24.8787 48.9405L23.7013 48.3542C22.1151 47.5481 21.3793 46.9912 21.0523 46.3757C20.7906 45.892 20.7906 45.8334 21.0523 45.3497C21.1994 45.0566 21.6246 44.6023 22.0007 44.3385C22.8837 43.6936 24.2246 43.0048 24.2246 43.1953C24.2246 43.5177 25.0585 44.2212 25.5328 44.2945C26.7265 44.5143 27.8221 43.8841 27.8221 42.9755C27.8221 42.697 27.7567 42.3452 27.6586 42.1987C27.4623 41.8762 27.5931 41.8323 30.1932 41.2607C34.7391 40.2641 39.7756 39.7951 46.4309 39.7365L48.7529 39.7071V40.2494ZM36.3252 49.3069C36.8976 49.4388 37.6498 49.6733 38.0095 49.8345C38.7617 50.1862 38.6636 50.3768 37.5026 50.8165C36.3089 51.2708 35.4259 51.3294 33.7089 51.0803C31.6485 50.7725 28.4762 50.0836 28.4762 49.9517C28.4762 49.7612 30.2749 49.2336 31.3869 49.087C32.8422 48.9112 35.0334 49.0138 36.3252 49.3069ZM22.8019 51.2122C25.6145 52.4433 28.7869 53.2787 33.0384 53.9382C42.163 55.3305 53.9366 55.14 62.2435 53.4692C65.5303 52.8097 68.8989 51.7691 70.714 50.8458C71.2046 50.6113 71.6461 50.4061 71.6951 50.4061C71.8914 50.4061 71.826 65.8829 71.6297 66.3372C70.8448 68.1986 65.6939 70.1771 58.924 71.2031C54.6725 71.8479 52.2196 72.0091 46.3819 72.0091C39.5466 72.0091 35.7529 71.6867 30.7982 70.6901C25.7617 69.6788 21.7063 67.9201 21.0032 66.4252C20.8397 66.0441 20.7906 64.3587 20.7906 58.1738C20.7906 53.9089 20.8233 50.4061 20.8724 50.4061C20.9214 50.4061 21.7881 50.7725 22.8019 51.2122Z" fill="#FF0000" fill-opacity="0.57"/>
<path d="M40.3806 41.4072C39.8246 41.671 39.5957 42.0374 39.5957 42.6676C39.5957 43.3125 39.9555 43.7522 40.675 43.9573C41.9504 44.3384 43.1114 43.7082 43.1114 42.609C43.1114 41.4658 41.607 40.8063 40.3806 41.4072Z" fill="#FF0000" fill-opacity="0.57"/>
<path d="M49.2272 47.4602C47.8536 48.6913 49.5379 50.5087 51.3367 49.7173C52.1543 49.3655 52.4486 48.7939 52.2033 48.0611C51.9744 47.3576 51.4184 47.0352 50.47 47.0352C49.8486 47.0352 49.6197 47.1085 49.2272 47.4602Z" fill="#FF0000" fill-opacity="0.57"/>
</symbol><symbol id="vk-icon" viewBox="0 0 34 34">
<path fill-rule="evenodd" clip-rule="evenodd" d="M11.7812 0H22.2188C31.7445 0 34 2.25547 34 11.7812V22.2188C34 31.7445 31.7445 34 22.2188 34H11.7812C2.25547 34 0 31.7445 0 22.2188V11.7812C0 2.25547 2.25547 0 11.7812 0Z" fill="#4680C2"/>
<path fill-rule="evenodd" clip-rule="evenodd" d="M27.7896 10.8524C27.9575 10.3246 27.7896 9.94064 27.0457 9.94064H24.5743C23.9505 9.94064 23.6625 10.2765 23.4946 10.6365C23.4946 10.6365 22.2228 13.7078 20.4473 15.6992C19.8714 16.2751 19.6075 16.4671 19.2956 16.4671C19.1276 16.4671 18.9117 16.2751 18.9117 15.7473V10.8284C18.9117 10.2046 18.7197 9.91663 18.1918 9.91663H14.3047C13.9208 9.91663 13.6809 10.2046 13.6809 10.4925C13.6809 11.0924 14.5687 11.2363 14.6646 12.9159V16.5631C14.6646 17.3549 14.5207 17.4988 14.2088 17.4988C13.369 17.4988 11.3294 14.4036 10.1057 10.8764C9.86575 10.1806 9.62584 9.91663 9.00201 9.91663H6.50654C5.78673 9.91663 5.66675 10.2526 5.66675 10.6125C5.66675 11.2603 6.50654 14.5236 9.57781 18.8425C11.6174 21.7938 14.5207 23.3774 17.1361 23.3774C18.7197 23.3774 18.9117 23.0175 18.9117 22.4177V20.1863C18.9117 19.4664 19.0556 19.3465 19.5595 19.3465C19.9194 19.3465 20.5672 19.5383 22.0309 20.954C23.7105 22.6336 23.9984 23.4015 24.9342 23.4015H27.4056C28.1255 23.4015 28.4614 23.0415 28.2695 22.3457C28.0535 21.6499 27.2377 20.6421 26.1819 19.4424C25.6061 18.7706 24.7422 18.0268 24.4783 17.6668C24.1184 17.187 24.2144 16.995 24.4783 16.5631C24.4544 16.5631 27.4776 12.2921 27.7896 10.8524Z" fill="white"/>
</symbol><symbol id="yandex-logo" viewBox="0 0 1080 1080">
<style type="text/css">
	.st0{fill:#FC3F1D;}
	.st1{fill:#FFFFFF;}
</style>
<circle class="st0" cx="540" cy="540" r="538.9"/>
<path id="Glyph" class="st1" d="M735,878.3H616.7V293.2H564c-96.6,0-147.2,48.3-147.2,120.4c0,81.8,34.9,119.7,107.1,168l59.5,40.1  l-171,256.5H285.2l153.9-229c-88.5-63.2-138.3-124.9-138.3-229c0-130.1,90.7-218.6,262.4-218.6h171v676.5H735z"/>
</symbol></svg>